<?xml version="1.0" encoding="UTF-8" standalone="no"?>
<!-- Created with Inkscape (http://www.inkscape.org/) -->
<svg
   xmlns:dc="http://purl.org/dc/elements/1.1/"
   xmlns:cc="http://web.resource.org/cc/"
   xmlns:rdf="http://www.w3.org/1999/02/22-rdf-syntax-ns#"
   xmlns:svg="http://www.w3.org/2000/svg"
   xmlns="http://www.w3.org/2000/svg"
   xmlns:sodipodi="http://sodipodi.sourceforge.net/DTD/sodipodi-0.dtd"
   xmlns:inkscape="http://www.inkscape.org/namespaces/inkscape"
   width="1645.5807"
   height="452.81482"
   id="svg3642"
   sodipodi:version="0.32"
   inkscape:version="0.44+devel"
   version="1.0"
   sodipodi:docbase="/home/duffy/Desktop/GNOME Logo stuff"
   sodipodi:docname="gnome-logo-new.svg">
  <defs
     id="defs3644" />
  <sodipodi:namedview
     id="base"
     pagecolor="#ffffff"
     bordercolor="#666666"
     borderopacity="1.0"
     gridtolerance="10000"
     guidetolerance="10"
     objecttolerance="10"
     inkscape:pageopacity="0.0"
     inkscape:pageshadow="2"
     inkscape:zoom="0.35"
     inkscape:cx="237.74079"
     inkscape:cy="358.99286"
     inkscape:document-units="px"
     inkscape:current-layer="layer1"
     inkscape:window-width="814"
     inkscape:window-height="580"
     inkscape:window-x="2"
     inkscape:window-y="46" />
  <metadata
     id="metadata3647">
    <rdf:RDF>
      <cc:Work
         rdf:about="">
        <dc:format>image/svg+xml</dc:format>
        <dc:type
           rdf:resource="http://purl.org/dc/dcmitype/StillImage" />
      </cc:Work>
    </rdf:RDF>
  </metadata>
  <g
     inkscape:label="Layer 1"
     inkscape:groupmode="layer"
     id="layer1"
     transform="translate(699.8527,-142.7872)">
    <g
       id="g15041"
       transform="matrix(1.293235,0,0,1.293235,-4896.039,-1242.64)">
      <g
         id="g15043"
         transform="matrix(2.438586,0,0,2.438586,3659.952,1113.451)"
         style="fill:black;fill-opacity:1;fill-rule:nonzero;stroke:none;stroke-miterlimit:4"
         inkscape:export-filename="/home/duffy/Desktop/gnome_logo_horiz.png"
         inkscape:export-xdpi="72.000000"
         inkscape:export-ydpi="72.000000">
        <g
           style="fill:black;fill-opacity:1"
           id="g15045">
          <path
             style="fill:black;fill-opacity:1"
             d="M 86.068,0 C 61.466,0 56.851,35.041 70.691,35.041 C 84.529,35.041 110.671,0 86.068,0 z "
             id="path15047" />
          <path
             style="fill:black;fill-opacity:1"
             d="M 45.217,30.699 C 52.586,31.149 60.671,2.577 46.821,4.374 C 32.976,6.171 37.845,30.249 45.217,30.699 z "
             id="path15049" />
          <path
             style="fill:black;fill-opacity:1"
             d="M 11.445,48.453 C 16.686,46.146 12.12,23.581 3.208,29.735 C -5.7,35.89 6.204,50.759 11.445,48.453 z "
             id="path15051" />
          <path
             style="fill:black;fill-opacity:1"
             d="M 26.212,36.642 C 32.451,35.37 32.793,9.778 21.667,14.369 C 10.539,18.961 19.978,37.916 26.212,36.642 L 26.212,36.642 z "
             id="path15053" />
          <path
             style="fill:black;fill-opacity:1"
             id="path15055"
             d="M 58.791,93.913 C 59.898,102.367 52.589,106.542 45.431,101.092 C 22.644,83.743 83.16,75.088 79.171,51.386 C 75.86,31.712 15.495,37.769 8.621,68.553 C 3.968,89.374 27.774,118.26 52.614,118.26 C 64.834,118.26 78.929,107.226 81.566,93.248 C 83.58,82.589 57.867,86.86 58.791,93.913 L 58.791,93.913 z " />
        </g>
      </g>
      <g
         id="g15057">
        <path
           style="font-size:148.699646px;font-style:normal;font-variant:normal;font-weight:bold;font-stretch:normal;text-align:start;line-height:125%;writing-mode:lr-tb;text-anchor:start;fill:black;fill-opacity:1;stroke:none;stroke-width:1pt;stroke-linecap:butt;stroke-linejoin:miter;stroke-opacity:1;font-family:Bitstream Vera Sans"
           d="M 4176.2963,1214.4401 C 4161.1885,1214.847 4149.2577,1220.2768 4140.4837,1230.6901 C 4131.3976,1241.527 4126.8275,1256.5005 4126.8275,1275.5964 C 4126.8275,1294.6396 4131.3978,1309.5721 4140.4837,1320.4088 C 4149.6142,1331.2457 4162.1501,1336.6588 4178.14,1336.6588 C 4194.174,1336.6588 4206.7414,1331.2457 4215.8275,1320.4088 C 4224.9134,1309.5721 4229.4526,1294.6396 4229.4525,1275.5964 C 4229.4524,1256.5005 4224.9134,1241.527 4215.8275,1230.6901 C 4206.7414,1219.8535 4194.1739,1214.4402 4178.14,1214.4401 C 4177.5154,1214.4401 4176.9104,1214.4236 4176.2963,1214.4401 z M 4177.4213,1236.4401 C 4177.6628,1236.4334 4177.895,1236.4401 4178.14,1236.4401 C 4186.0233,1236.4402 4192.1319,1239.8515 4196.4525,1246.6901 C 4200.7728,1253.5289 4202.9524,1263.1814 4202.9525,1275.5964 C 4202.9525,1287.9587 4200.7726,1297.5391 4196.4525,1304.3776 C 4192.1321,1311.2165 4186.0232,1314.6588 4178.14,1314.6588 C 4170.3009,1314.6588 4164.2417,1311.2165 4159.9213,1304.3776 C 4155.6009,1297.5391 4153.4214,1287.9587 4153.4213,1275.5964 C 4153.4213,1263.1815 4155.6011,1253.5289 4159.9213,1246.6901 C 4164.1065,1240.0652 4169.9336,1236.6473 4177.4213,1236.4401 z "
           id="path15059" />
        <path
           style="font-size:148.699646px;font-style:normal;font-variant:normal;font-weight:bold;font-stretch:normal;text-align:start;line-height:125%;writing-mode:lr-tb;text-anchor:start;fill:black;fill-opacity:1;stroke:none;stroke-width:1pt;stroke-linecap:butt;stroke-linejoin:miter;stroke-opacity:1;font-family:Bitstream Vera Sans"
           d="M 4005.6293,1325.612 C 3992.3217,1336.7877 3972.5226,1336.6592 3964.2744,1336.6592 C 3947.6611,1336.6592 3934.4997,1331.1882 3924.7902,1320.2462 C 3915.0805,1309.2516 3910.2258,1294.3643 3910.2258,1275.584 C 3910.2258,1256.5934 3915.1696,1241.6535 3925.0574,1230.764 C 3934.9452,1219.8748 3948.4851,1214.4301 3965.6774,1214.43 C 3972.3137,1214.4301 3978.6605,1215.1666 3984.718,1216.6394 C 3990.8199,1218.1124 3996.5655,1220.2956 4001.9548,1223.1888 L 3995.0338,1243.6496 C 3992.004,1241.991 3988.5351,1240.3564 3985.3193,1239.2072 C 3979.8409,1237.3661 3974.3403,1236.4455 3968.8175,1236.4454 C 3958.5733,1236.4455 3950.6675,1239.8386 3945.1002,1246.6246 C 3939.5772,1253.3582 3936.8158,1263.0113 3936.8158,1275.584 C 3936.8158,1288.0516 3939.4881,1297.6785 3944.833,1304.4646 C 3950.1776,1311.2507 3958.2098,1314.6437 3967.6148,1314.6437 C 3977.1696,1314.6437 3983.0876,1312.2353 3986.2439,1309.6976 L 3986.2439,1289.3141 L 3965.5438,1289.3141 L 3965.5438,1268.9557 L 4005.6293,1268.9557"
           id="path15061"
           sodipodi:nodetypes="cscsssccccsssszccccc" />
        <path
           style="font-size:148.699646px;font-style:normal;font-variant:normal;font-weight:bold;font-stretch:normal;text-align:start;line-height:125%;writing-mode:lr-tb;text-anchor:start;fill:black;fill-opacity:1;stroke:none;stroke-width:1pt;stroke-linecap:butt;stroke-linejoin:miter;stroke-opacity:1;font-family:Bitstream Vera Sans"
           d="M 4023.2108,1216.5605 L 4039.4387,1216.5605 L 4090.7162,1287.3627 L 4090.7162,1216.5605 L 4112.6015,1216.5605 L 4112.6015,1334.3708 L 4096.3736,1334.3708 L 4045.0962,1263.5686 L 4045.0962,1334.3708 L 4023.2108,1334.3708 L 4023.2108,1216.5605"
           id="path15063"
           sodipodi:nodetypes="ccccccccccc" />
        <path
           style="font-size:148.699646px;font-style:normal;font-variant:normal;font-weight:bold;font-stretch:normal;text-align:start;line-height:125%;writing-mode:lr-tb;text-anchor:start;fill:black;fill-opacity:1;stroke:none;stroke-width:1pt;stroke-linecap:butt;stroke-linejoin:miter;stroke-opacity:1;font-family:Bitstream Vera Sans"
           d="M 4246.3361,1216.5605 L 4279.0727,1216.5605 L 4301.7878,1290.1084 L 4324.6365,1216.5605 L 4352.3063,1216.5605 L 4364.8063,1334.3708 L 4340.4877,1334.3708 L 4332.9877,1260.7028 L 4310.0054,1334.7241 L 4293.7039,1334.7241 L 4270.7215,1258.2028 L 4263.2215,1334.3708 L 4238.8361,1334.3708 L 4251.3361,1216.5605"
           id="path15065"
           sodipodi:nodetypes="cccccccccccccc" />
        <path
           style="font-size:148.699646px;font-style:normal;font-variant:normal;font-weight:bold;font-stretch:normal;text-align:start;line-height:125%;writing-mode:lr-tb;text-anchor:start;fill:black;fill-opacity:1;stroke:none;stroke-width:1pt;stroke-linecap:butt;stroke-linejoin:miter;stroke-opacity:1;font-family:Bitstream Vera Sans"
           d="M 4382.3597,1216.5605 L 4451.7744,1216.5605 L 4451.7744,1239.5229 L 4408.0811,1239.5229 L 4408.0811,1263.9594 L 4441.6688,1263.9594 L 4441.6688,1284.4217 L 4408.0811,1284.4217 L 4408.0811,1311.4085 L 4453.2442,1311.4085 L 4453.2442,1334.3708 L 4382.3597,1334.3708 L 4382.3597,1216.5605"
           id="path15067"
           sodipodi:nodetypes="ccccccccccccc" />
        <text
           id="text15069"
           y="1215.743"
           x="4474.6182"
           style="font-size:30.68958855px;font-style:normal;font-weight:normal;fill:black;fill-opacity:1;stroke:none;stroke-width:1pt;stroke-linecap:butt;stroke-linejoin:miter;stroke-opacity:1;font-family:Bitstream Vera Sans"
           xml:space="preserve"><tspan
             style="letter-spacing:11.06259632"
             y="1215.743"
             x="4474.6182"
             id="tspan15072"
             sodipodi:role="line"><tspan
               style="letter-spacing:0.2523815"
               id="tspan15074">TM</tspan></tspan></text>
      </g>
    </g>
    <g
       id="g3963"
       transform="translate(37.14286,14.28571)">
      <g
         id="g3771"
         transform="matrix(2.914897,0,0,2.914897,-717.5904,128.5015)"
         style="fill:black;fill-opacity:1;fill-rule:nonzero;stroke:none;stroke-miterlimit:4"
         inkscape:export-filename="/home/duffy/Desktop/gnome_logo_horiz.png"
         inkscape:export-xdpi="72.000000"
         inkscape:export-ydpi="72.000000">
        <g
           style="fill:black;fill-opacity:1"
           id="g3773">
          <path
             style="fill:black;fill-opacity:1"
             d="M 86.068,0 C 61.466,0 56.851,35.041 70.691,35.041 C 84.529,35.041 110.671,0 86.068,0 z "
             id="path3775" />
          <path
             style="fill:black;fill-opacity:1"
             d="M 45.217,30.699 C 52.586,31.149 60.671,2.577 46.821,4.374 C 32.976,6.171 37.845,30.249 45.217,30.699 z "
             id="path3777" />
          <path
             style="fill:black;fill-opacity:1"
             d="M 11.445,48.453 C 16.686,46.146 12.12,23.581 3.208,29.735 C -5.7,35.89 6.204,50.759 11.445,48.453 z "
             id="path3779" />
          <path
             style="fill:black;fill-opacity:1"
             d="M 26.212,36.642 C 32.451,35.37 32.793,9.778 21.667,14.369 C 10.539,18.961 19.978,37.916 26.212,36.642 L 26.212,36.642 z "
             id="path3781" />
          <path
             style="fill:black;fill-opacity:1"
             id="path3783"
             d="M 58.791,93.913 C 59.898,102.367 52.589,106.542 45.431,101.092 C 22.644,83.743 83.16,75.088 79.171,51.386 C 75.86,31.712 15.495,37.769 8.621,68.553 C 3.968,89.374 27.774,118.26 52.614,118.26 C 64.834,118.26 78.929,107.226 81.566,93.248 C 83.58,82.589 57.867,86.86 58.791,93.913 L 58.791,93.913 z " />
        </g>
      </g>
      <g
         transform="matrix(1.098291,0,0,1.098291,41.06056,-50.07504)"
         id="g3956">
        <path
           style="font-size:148.699646px;font-style:normal;font-variant:normal;font-weight:bold;font-stretch:normal;text-align:start;line-height:125%;writing-mode:lr-tb;text-anchor:start;fill:black;fill-opacity:1;stroke:none;stroke-width:1pt;stroke-linecap:butt;stroke-linejoin:miter;stroke-opacity:1;font-family:Bitstream Vera Sans"
           d="M -565.99523,509.46063 C -574.08254,509.67855 -580.46917,512.58511 -585.16594,518.15929 C -590.02979,523.9603 -592.47618,531.9758 -592.47618,542.19791 C -592.47618,552.39185 -590.02967,560.38536 -585.16594,566.18637 C -580.27833,571.98737 -573.56779,574.88503 -565.0083,574.88503 C -556.4252,574.88503 -549.6978,571.98737 -544.83394,566.18637 C -539.97021,560.38536 -537.54036,552.39185 -537.54041,542.19791 C -537.54046,531.9758 -539.97021,523.9603 -544.83394,518.15929 C -549.6978,512.35854 -556.42525,509.46063 -565.0083,509.46063 C -565.34264,509.46063 -565.6665,509.45174 -565.99523,509.46063 z M -565.39302,521.23732 C -565.26375,521.23386 -565.13945,521.23732 -565.0083,521.23732 C -560.78832,521.23732 -557.51834,523.06342 -555.2055,526.72429 C -552.89284,530.38515 -551.72606,535.55217 -551.72601,542.19791 C -551.72601,548.81548 -552.89293,553.94395 -555.2055,557.60482 C -557.51824,561.26568 -560.78836,563.10834 -565.0083,563.10834 C -569.20462,563.10834 -572.44813,561.26568 -574.76087,557.60482 C -577.07361,553.94395 -578.24031,548.81548 -578.24036,542.19791 C -578.24036,535.55217 -577.07352,530.38515 -574.76087,526.72429 C -572.52052,523.17782 -569.40124,521.34825 -565.39302,521.23732 z "
           id="path3787" />
        <path
           style="font-size:148.699646px;font-style:normal;font-variant:normal;font-weight:bold;font-stretch:normal;text-align:start;line-height:125%;writing-mode:lr-tb;text-anchor:start;fill:black;fill-opacity:1;stroke:none;stroke-width:1pt;stroke-linecap:butt;stroke-linejoin:miter;stroke-opacity:1;font-family:Bitstream Vera Sans"
           d="M -657.35432,568.97161 C -664.47794,574.95396 -675.07651,574.88527 -679.49184,574.88527 C -688.38504,574.88527 -695.43039,571.95648 -700.62797,566.09915 C -705.82562,560.2139 -708.42437,552.24459 -708.42437,542.19124 C -708.42437,532.02546 -705.77791,524.02799 -700.48492,518.19883 C -695.19192,512.36991 -687.94394,509.4552 -678.74079,509.4552 C -675.18834,509.4552 -671.79088,509.84953 -668.54825,510.63793 C -665.28187,511.42634 -662.20622,512.59499 -659.32128,514.14388 L -663.02615,525.09658 C -664.648,524.20885 -666.50495,523.33372 -668.22637,522.71851 C -671.15899,521.73294 -674.10349,521.24028 -677.05988,521.24028 C -682.54367,521.24028 -686.77569,523.05651 -689.75589,526.6892 C -692.71238,530.29374 -694.19059,535.461 -694.19059,542.19124 C -694.19059,548.86539 -692.76009,554.01857 -689.89892,557.65127 C -687.03793,561.28397 -682.73824,563.10019 -677.7037,563.10019 C -672.58894,563.10019 -669.42101,561.81097 -667.73144,560.45257 L -667.73144,549.54113 L -678.81231,549.54113 L -678.81231,538.64304 L -657.35432,538.64304"
           id="path3789"
           sodipodi:nodetypes="cscsssccccsssszccccc" />
        <path
           style="font-size:148.699646px;font-style:normal;font-variant:normal;font-weight:bold;font-stretch:normal;text-align:start;line-height:125%;writing-mode:lr-tb;text-anchor:start;fill:black;fill-opacity:1;stroke:none;stroke-width:1pt;stroke-linecap:butt;stroke-linejoin:miter;stroke-opacity:1;font-family:Bitstream Vera Sans"
           d="M -528.50252,510.59568 L -510.97842,510.59568 L -498.8189,549.96634 L -486.58785,510.59568 L -471.77604,510.59568 L -465.08472,573.66029 L -478.10259,573.66029 L -482.11739,534.22539 L -494.41996,573.8493 L -503.14624,573.8493 L -515.44887,532.887 L -519.46366,573.66029 L -532.51731,573.66029 L -525.82599,510.59568"
           id="path3793"
           sodipodi:nodetypes="cccccccccccccc" />
        <path
           style="font-size:148.699646px;font-style:normal;font-variant:normal;font-weight:bold;font-stretch:normal;text-align:start;line-height:125%;writing-mode:lr-tb;text-anchor:start;fill:black;fill-opacity:1;stroke:none;stroke-width:1pt;stroke-linecap:butt;stroke-linejoin:miter;stroke-opacity:1;font-family:Bitstream Vera Sans"
           d="M -455.68828,510.59568 L -418.53017,510.59568 L -418.53017,522.88751 L -441.91945,522.88751 L -441.91945,535.96848 L -423.93976,535.96848 L -423.93976,546.92217 L -441.91945,546.92217 L -441.91945,561.36846 L -417.74337,561.36846 L -417.74337,573.66029 L -455.68828,573.66029 L -455.68828,510.59568"
           id="path3795"
           sodipodi:nodetypes="ccccccccccccc" />
        <path
           style="font-size:148.699646px;font-style:normal;font-variant:normal;font-weight:bold;font-stretch:normal;text-align:start;line-height:125%;writing-mode:lr-tb;text-anchor:start;fill:black;fill-opacity:1;stroke:none;stroke-width:1pt;stroke-linecap:butt;stroke-linejoin:miter;stroke-opacity:1;font-family:Bitstream Vera Sans"
           d="M -647.94283,510.59568 L -639.25593,510.59568 L -611.80678,548.49651 L -611.80678,510.59568 L -600.09145,510.59568 L -600.09145,573.66029 L -608.77835,573.66029 L -636.22745,535.75946 L -636.22745,573.66029 L -647.94283,573.66029 L -647.94283,510.59568"
           id="path3791"
           sodipodi:nodetypes="ccccccccccc" />
      </g>
      <text
         xml:space="preserve"
         style="font-size:25.88836098px;font-style:normal;font-weight:normal;fill:black;fill-opacity:1;stroke:none;stroke-width:1pt;stroke-linecap:butt;stroke-linejoin:miter;stroke-opacity:1;font-family:Bitstream Vera Sans"
         x="-406.52405"
         y="527.92285"
         id="text3797"><tspan
           sodipodi:role="line"
           id="tspan3799"
           x="-406.52405"
           y="527.92285"
           style="letter-spacing:9.33191109"><tspan
             id="tspan3801"
             style="letter-spacing:0.21289776">TM</tspan></tspan></text>
    </g>
  </g>
</svg>
