<?xml version="1.0" standalone="yes"?>

<svg version="1.1" viewBox="0.0 0.0 960.0 720.0" fill="none" stroke="none" stroke-linecap="square" stroke-miterlimit="10" clip-path="url(#p.0)" xmlns="http://www.w3.org/2000/svg" xmlns:xlink="http://www.w3.org/1999/xlink"><clipPath id="p.0"><path d="m0 0l960.0 0l0 720.0l-960.0 0l0 -720.0z" clip-rule="nonzero"></path></clipPath><defs><linearGradient id="p.1" gradientUnits="userSpaceOnUse" gradientTransform="matrix(30.983867446833255 0.0 0.0 23.23790058512494 0.0 0.0)" spreadMethod="pad" x1="6.199525651342623E-14" y1="-1.3543478026844918E-6" x2="-1.3543478026844918E-6" y2="30.983866092485428"><stop offset="0.0" stop-color="#960f0f"></stop><stop offset="1.0" stop-color="#c82009"></stop></linearGradient></defs><path fill="url(#p.1)" d="m0 0l960.0 0l0 720.0l-960.0 0z" fill-rule="nonzero"></path><path stroke="#d23927" stroke-width="11.333333333333334" stroke-linejoin="round" stroke-linecap="butt" d="m8.0 8.0l0 704.0" fill-rule="nonzero"></path><path stroke="#d23927" stroke-width="12.0" stroke-linejoin="round" stroke-linecap="butt" d="m952.0 8.0l0 704.0" fill-rule="nonzero"></path><path stroke="#d23927" stroke-width="7.333333333333333" stroke-linejoin="round" stroke-linecap="butt" d="m55.999897 8.0l0 704.0" fill-rule="nonzero"></path><path stroke="#d23927" stroke-width="16.0" stroke-linejoin="round" stroke-linecap="butt" d="m112.0 8.0l-16.0 664.0" fill-rule="nonzero"></path><path stroke="#d23927" stroke-width="2.6666666666666665" stroke-linejoin="round" stroke-linecap="butt" d="m12.220998 8.0l0 0l-0.33333302 12.398651l-0.33333397 14.744343l0 19.77082l0.666667 24.462208l1.0 28.148285l1.0 15.414543l1.0 16.08474l1.333333 17.090027l2.0 17.760239l2.0 18.095322l2.333334 18.765533l3.0 19.100616l3.0 19.770828l3.666668 20.105911l4.333332 20.105927l4.333332 20.44101l5.333336 20.776123l5.666664 20.44104l6.0 20.776093l7.000004 20.776123l7.3333282 20.44104l8.333336 20.44101l8.666664 20.105927l4.6666718 10.052948l4.666664 9.717865l5.0 9.717865l5.333336 9.717865l0 0l11.0 20.44104l10.333336 19.100586l9.0 17.760254l8.0 16.41986l7.3333282 15.079407l6.6666718 14.074158l5.6666565 13.068848l5.0 11.728455l4.0 11.058228l3.6666718 9.7178955l3.0 9.047668l2.3333282 8.042358l1.6666718 7.0370483l1.3333282 6.3668823l1.0 5.6967163l0.3333435 5.026428l0.33332825 4.3563232l-0.33332825 3.3509521l-0.3333435 3.3510132l-1.0 2.3457031l-0.6666565 2.345642l-1.0 1.6755371l-1.3333435 1.00531l-1.3333282 1.005249l-1.0 0.67022705l-1.3333282 0.670166l-2.3333435 0.33514404l-1.3333282 -0.33514404l-0.66667175 0" fill-rule="nonzero"></path><path stroke="#cb2813" stroke-width="2.6666666666666665" stroke-linejoin="round" stroke-linecap="butt" d="m823.0089 659.6667l0 0l0.666687 -3.333374l1.0 -3.666626l1.666687 -5.0l2.666626 -5.666687l3.333374 -6.333313l4.666626 -7.0l2.666687 -3.666687l3.0 -3.666687l3.333313 -4.0l3.666687 -3.666626l4.0 -3.666687l4.666687 -3.666687l4.666626 -3.333313l5.333374 -3.666687l5.666626 -3.333313l6.0 -3.0l6.666687 -3.0l7.0 -3.0l7.666687 -2.333313l8.0 -2.333374l8.666626 -2.0l9.0 -1.666626l9.666687 -1.666687l10.333313 -1.0" fill-rule="nonzero"></path><path stroke="#d0331f" stroke-width="2.6666666666666665" stroke-linejoin="round" stroke-linecap="butt" d="m868.56934 645.0l0 0l4.0 -3.0l4.333313 -4.0l6.0 -6.0l6.666687 -7.666687l3.666626 -4.666626l4.0 -5.333374l4.0 -5.666626l4.0 -6.666687l4.0 -6.666687l4.0 -7.666626l4.0 -8.333374l4.0 -8.666626l4.0 -9.666687l3.666687 -10.0l3.666687 -10.666687l3.333313 -11.666626l3.0 -12.333374l2.666687 -12.9999695l2.666626 -13.666687l2.0 -14.333313l1.666687 -15.3333435l1.333313 -16.0l0.666687 -17.0l0.333313 -17.666656l-0.333313 -18.333344l-0.666687 -19.666656" fill-rule="nonzero"></path><path fill="#000000" d="m0 215.93594l960.0 0l0 84.787506l-472.25586 28.538269l-0.79693604 -10.17218l-399.14542 24.910461l-0.75580597 -9.646301l-87.04598 5.432495l0 -39.062744z" fill-rule="nonzero"></path><path fill="#000000" d="m0 0l960.0 0l0 224.0l-960.0 0z" fill-rule="nonzero"></path><path fill="#e26f01" d="m49.637768 283.1467l18.243855 -7.969879l6.228592 -17.352966l8.575562 16.31723l19.172462 5.3520813l-18.24385 7.9698486l-6.2285843 17.352966l-8.575569 -16.3172z" fill-rule="nonzero"></path><path fill="#000000" d="m960.0 368.64l0 78.19998l0 273.70004l-960.0 0l0 -273.70004z" fill-rule="nonzero"></path><path fill="#000000" d="m96.00006 428.11832l629.8583 -52.125977l2.4881592 30.141724l-629.8583 52.125977z" fill-rule="nonzero"></path><path fill="#ffffff" d="m232.78125 39.7751l-3.40625 6.53125q-1.4375 -1.28125 -4.4375 -2.546875q-3.0 -1.265625 -5.15625 -1.265625q-6.75 0 -10.65625 4.578125q-3.90625 4.578125 -3.90625 12.265625q0 7.3125 3.828125 11.6875q3.828125 4.375 10.421875 4.375q4.34375 0 7.15625 -2.375l0 -9.0l-6.34375 0l0 -6.9375l14.46875 0l0 20.5q-2.90625 2.375 -7.484375 3.703125q-4.578125 1.328125 -9.109375 1.328125q-9.84375 0 -15.609375 -6.453125q-5.765625 -6.453125 -5.765625 -17.046875q0 -10.59375 6.28125 -17.21875q6.28125 -6.625 16.90625 -6.625q7.53125 0 12.8125 4.5zm30.21875 42.0625l0 -19.34375q0 -4.28125 -1.640625 -6.25q-1.640625 -1.96875 -5.359375 -1.96875q-1.71875 0 -3.671875 0.96875q-1.953125 0.96875 -3.046875 2.40625l0 24.1875l-7.8125 0l0 -33.46875l5.625 0l1.4375 3.125q3.1875 -3.75 9.40625 -3.75q5.96875 0 9.421875 3.578125q3.453125 3.578125 3.453125 9.984375l0 20.53125l-7.8125 0zm14.0625 -16.8125q0 -7.65625 4.421875 -12.46875q4.421875 -4.8125 11.671875 -4.8125q7.625 0 11.84375 4.625q4.21875 4.625 4.21875 12.65625q0 8.0 -4.296875 12.71875q-4.296875 4.71875 -11.765625 4.71875q-7.625 0 -11.859375 -4.765625q-4.234375 -4.765625 -4.234375 -12.671875zm8.125 0q0 11.0625 7.96875 11.0625q3.65625 0 5.796875 -2.875q2.140625 -2.875 2.140625 -8.1875q0 -10.90625 -7.9375 -10.90625q-3.65625 0 -5.8125 2.875q-2.15625 2.875 -2.15625 8.03125zm69.03125 16.8125l0 -20.96875q0 -6.59375 -5.90625 -6.59375q-1.75 0 -3.375 1.03125q-1.625 1.03125 -2.28125 2.375l0 24.15625l-7.8125 0l0 -22.1875q0 -2.46875 -1.53125 -3.921875q-1.53125 -1.453125 -4.3125 -1.453125q-1.46875 0 -3.203125 1.09375q-1.734375 1.09375 -2.515625 2.40625l0 24.0625l-7.8125 0l0 -33.46875l5.375 0l1.59375 2.9375q3.25 -3.5625 8.40625 -3.5625q6.65625 0 10.03125 3.625q1.46875 -1.65625 4.09375 -2.640625q2.625 -0.984375 5.25 -0.984375q5.59375 0 8.703125 3.203125q3.109375 3.203125 3.109375 8.796875l0 22.09375l-7.8125 0zm46.125 -14.34375l-23.90625 0q0.21875 4.0 2.75 6.21875q2.53125 2.21875 6.8125 2.21875q5.34375 0 8.125 -2.78125l3.03125 5.96875q-4.125 3.34375 -12.3125 3.34375q-7.65625 0 -12.109375 -4.484375q-4.453125 -4.484375 -4.453125 -12.515625q0 -7.90625 4.890625 -12.8125q4.890625 -4.90625 11.734375 -4.90625q7.28125 0 11.6875 4.34375q4.40625 4.34375 4.40625 11.0625q0 1.4375 -0.65625 4.34375zm-23.625 -5.875l16.4375 0q-0.8125 -7.34375 -8.125 -7.34375q-6.6875 0 -8.3125 7.34375zm58.40625 -18.34375l0 10.71875l15.125 0l0 6.90625l-15.125 0l0 13.71875l20.75 0l0 7.21875l-28.875 0l0 -45.78125l29.21875 0l0 7.21875l-21.09375 0zm49.3125 38.5625l-8.59375 -10.90625l-7.71875 10.90625l-9.25 0l12.84375 -17.125l-11.8125 -16.34375l8.96875 0l7.0625 10.21875l7.875 -10.21875l8.90625 0l-12.84375 16.34375l14.03125 17.125l-9.46875 0zm15.03125 -27.1875l-3.875 0l0 -6.28125l3.875 0l0 -6.8125l7.8125 -2.875l0 9.6875l9.1875 0l0 6.28125l-9.1875 0l0 14.65625q0 3.59375 1.125 5.078125q1.125 1.484375 3.9375 1.484375q2.8125 0 5.25 -1.53125l0 7.1875q-2.71875 0.9375 -7.75 0.9375q-5.0 0 -7.6875 -2.828125q-2.6875 -2.828125 -2.6875 -8.046875l0 -16.9375zm54.0625 12.84375l-23.90625 0q0.21875 4.0 2.75 6.21875q2.53125 2.21875 6.8125 2.21875q5.34375 0 8.125 -2.78125l3.03125 5.96875q-4.125 3.34375 -12.3125 3.34375q-7.65625 0 -12.109375 -4.484375q-4.453125 -4.484375 -4.453125 -12.515625q0 -7.90625 4.890625 -12.8125q4.890625 -4.90625 11.734375 -4.90625q7.28125 0 11.6875 4.34375q4.40625 4.34375 4.40625 11.0625q0 1.4375 -0.65625 4.34375zm-23.625 -5.875l16.4375 0q-0.8125 -7.34375 -8.125 -7.34375q-6.6875 0 -8.3125 7.34375zm52.0625 20.21875l0 -19.34375q0 -4.28125 -1.640625 -6.25q-1.640625 -1.96875 -5.359375 -1.96875q-1.71875 0 -3.671875 0.96875q-1.953125 0.96875 -3.046875 2.40625l0 24.1875l-7.8125 0l0 -33.46875l5.625 0l1.4375 3.125q3.1875 -3.75 9.40625 -3.75q5.96875 0 9.421875 3.578125q3.453125 3.578125 3.453125 9.984375l0 20.53125l-7.8125 0zm14.1875 -2.15625l2.78125 -6.21875q3.5 2.78125 7.90625 2.78125q4.5625 0 4.5625 -3.25q0 -1.90625 -1.375 -3.125q-1.375 -1.21875 -5.34375 -2.875q-8.65625 -3.59375 -8.65625 -10.0625q0 -4.34375 3.3125 -6.765625q3.3125 -2.421875 8.46875 -2.421875q5.21875 0 9.8125 2.34375l-2.25 6.0625q-2.5625 -2.1875 -7.125 -2.1875q-4.09375 0 -4.09375 3.25q0 1.28125 1.34375 2.3125q1.34375 1.03125 5.75 2.765625q4.40625 1.734375 6.34375 4.203125q1.9375 2.46875 1.9375 5.96875q0 4.65625 -3.453125 7.328125q-3.453125 2.671875 -9.390625 2.671875q-3.34375 0 -5.359375 -0.546875q-2.015625 -0.546875 -5.171875 -2.234375zm35.75 -44.28125q1.875 0 3.203125 1.328125q1.328125 1.328125 1.328125 3.203125q0 1.875 -1.328125 3.203125q-1.328125 1.328125 -3.203125 1.328125q-1.875 0 -3.203125 -1.328125q-1.328125 -1.328125 -1.328125 -3.203125q0 -1.875 1.328125 -3.203125q1.328125 -1.328125 3.203125 -1.328125zm-4.03125 46.4375l0 -27.0625l-4.28125 0l0 -6.40625l12.1875 0l0 33.46875l-7.90625 0zm14.8125 -16.8125q0 -7.65625 4.421875 -12.46875q4.421875 -4.8125 11.671875 -4.8125q7.625 0 11.84375 4.625q4.21875 4.625 4.21875 12.65625q0 8.0 -4.296875 12.71875q-4.296875 4.71875 -11.765625 4.71875q-7.625 0 -11.859375 -4.765625q-4.234375 -4.765625 -4.234375 -12.671875zm8.125 0q0 11.0625 7.96875 11.0625q3.65625 0 5.796875 -2.875q2.140625 -2.875 2.140625 -8.1875q0 -10.90625 -7.9375 -10.90625q-3.65625 0 -5.8125 2.875q-2.15625 2.875 -2.15625 8.03125zm51.8125 16.8125l0 -19.34375q0 -4.28125 -1.640625 -6.25q-1.640625 -1.96875 -5.359375 -1.96875q-1.71875 0 -3.671875 0.96875q-1.953125 0.96875 -3.046875 2.40625l0 24.1875l-7.8125 0l0 -33.46875l5.625 0l1.4375 3.125q3.1875 -3.75 9.40625 -3.75q5.96875 0 9.421875 3.578125q3.453125 3.578125 3.453125 9.984375l0 20.53125l-7.8125 0zm14.1875 -2.15625l2.78125 -6.21875q3.5 2.78125 7.90625 2.78125q4.5625 0 4.5625 -3.25q0 -1.90625 -1.375 -3.125q-1.375 -1.21875 -5.34375 -2.875q-8.65625 -3.59375 -8.65625 -10.0625q0 -4.34375 3.3125 -6.765625q3.3125 -2.421875 8.46875 -2.421875q5.21875 0 9.8125 2.34375l-2.25 6.0625q-2.5625 -2.1875 -7.125 -2.1875q-4.09375 0 -4.09375 3.25q0 1.28125 1.34375 2.3125q1.34375 1.03125 5.75 2.765625q4.40625 1.734375 6.34375 4.203125q1.9375 2.46875 1.9375 5.96875q0 4.65625 -3.453125 7.328125q-3.453125 2.671875 -9.390625 2.671875q-3.34375 0 -5.359375 -0.546875q-2.015625 -0.546875 -5.171875 -2.234375zm30.84375 -27.25q0 -2.34375 1.640625 -3.984375q1.640625 -1.640625 3.984375 -1.640625q2.34375 0 3.984375 1.640625q1.640625 1.640625 1.640625 3.984375q0 2.34375 -1.640625 4.0q-1.640625 1.65625 -3.984375 1.65625q-2.34375 0 -3.984375 -1.65625q-1.640625 -1.65625 -1.640625 -4.0zm0 25.3125q0 -2.34375 1.640625 -3.984375q1.640625 -1.640625 3.984375 -1.640625q2.34375 0 3.984375 1.640625q1.640625 1.640625 1.640625 3.984375q0 2.34375 -1.640625 4.0q-1.640625 1.65625 -3.984375 1.65625q-2.34375 0 -3.984375 -1.65625q-1.640625 -1.65625 -1.640625 -4.0z" fill-rule="nonzero"></path><path fill="#ffffff" d="m87.484375 156.1501l0 -4.78125l16.75 -41.000008l5.78125 0l15.28125 41.000008l0 4.78125l-37.8125 0zm19.40625 -33.625008l-10.3125 26.718758l20.0 0l-9.6875 -26.718758zm48.96875 30.687508q-6.25 3.65625 -14.34375 3.65625q-5.75 0 -9.390625 -2.546875q-3.640625 -2.546875 -3.640625 -7.078125q0 -2.5 1.625 -4.71875q1.625 -2.21875 4.625 -3.46875q-2.65625 -0.6875 -4.140625 -2.671875q-1.484375 -1.984375 -1.484375 -4.609375q0 -3.53125 3.40625 -6.6718826q3.40625 -3.140625 9.90625 -3.140625q5.8125 0 11.96875 2.3125l-2.1875 6.2812576q-4.96875 -2.25 -10.03125 -2.25q-2.21875 0 -3.609375 1.015625q-1.390625 1.015625 -1.390625 2.703125q0 1.78125 1.546875 2.90625q1.546875 1.125 4.734375 1.125q2.71875 0 5.375 -0.1875l0 6.0q-3.1875 -0.1875 -5.78125 -0.1875q-3.0 0 -4.71875 1.34375q-1.71875 1.34375 -1.71875 3.46875q0 1.9375 1.59375 3.015625q1.59375 1.078125 4.59375 1.078125q5.625 0 10.0 -3.34375l3.0625 5.96875zm19.90625 3.5625l-2.8125 0l-15.0625 -34.093758l8.78125 0l8.0625 21.000008l8.3125 -21.000008l8.3125 0l-15.59375 34.093758zm71.75 -27.5625l-8.375 -0.125q6.28125 5.59375 6.28125 11.96875q0 4.375 -1.96875 8.03125q-1.96875 3.65625 -5.609375 5.671875q-3.640625 2.015625 -8.484375 2.015625q-7.5 0 -11.8125 -4.546875q-4.3125 -4.546875 -4.3125 -12.015625q0 -7.90625 4.828125 -12.718758q4.828125 -4.8125 12.765625 -4.8125l16.6875 0l0 6.5312576zm-10.21875 11.71875q0 -3.21875 -1.78125 -6.4375q-1.78125 -3.21875 -4.8125 -5.40625q-4.53125 0 -6.9375 2.8125q-2.40625 2.8125 -2.40625 7.875q0 4.78125 2.1875 7.703125q2.1875 2.921875 6.125 2.921875q3.6875 0 5.65625 -2.640625q1.96875 -2.640625 1.96875 -6.828125zm47.9375 13.375q-1.125 2.46875 -4.9375 2.46875q-3.0 0 -5.125 -3.625q-3.21875 3.625 -9.40625 3.625q-6.53125 0 -10.421875 -4.546875q-3.890625 -4.546875 -3.890625 -12.640625q0 -7.53125 4.34375 -12.546883q4.34375 -5.015625 11.65625 -5.015625q5.5 0 8.375 3.28125q1.96875 -3.28125 4.65625 -3.28125q3.4375 0 4.625 2.375q-3.34375 1.53125 -3.34375 7.9375076l0 13.5625q0 6.8125 3.46875 8.40625zm-11.125 -7.125l0 -16.625q-2.5625 -2.0625 -5.78125 -2.0625q-4.03125 0 -6.484375 3.125q-2.453125 3.125 -2.453125 7.96875q0 3.4375 1.1875 6.03125q1.1875 2.59375 3.0 3.65625q1.8125 1.0625 4.0625 1.0625q3.46875 0 6.46875 -3.15625zm39.4375 -16.125q-3.0625 -2.5 -7.4375 -2.5q-3.71875 0 -6.109375 3.046875q-2.390625 3.046875 -2.390625 7.921875q0 3.84375 2.25 6.34375q2.25 2.5 6.3125 3.375q6.4375 1.375 8.984375 3.703125q2.546875 2.328125 2.546875 6.453125q0 4.28125 -3.1875 7.078125q-3.1875 2.796875 -8.09375 2.796875q-2.5625 0 -4.59375 -0.4375l0.90625 -5.71875q1.4375 0.46875 3.375 0.46875q1.90625 0 3.0 -0.859375q1.09375 -0.859375 1.09375 -2.359375q0 -3.5625 -4.59375 -4.34375q-5.84375 -0.875 -9.0 -2.609375q-3.15625 -1.734375 -5.140625 -5.25q-1.984375 -3.515625 -1.984375 -8.015625q0 -7.71875 4.390625 -12.921883q4.390625 -5.203125 13.015625 -5.203125q5.75 0 9.96875 3.21875l-3.3125 5.8125076zm59.65625 23.25q-1.125 2.46875 -4.9375 2.46875q-3.0 0 -5.125 -3.625q-3.21875 3.625 -9.40625 3.625q-6.53125 0 -10.421875 -4.546875q-3.890625 -4.546875 -3.890625 -12.640625q0 -7.53125 4.34375 -12.546883q4.34375 -5.015625 11.65625 -5.015625q5.5 0 8.375 3.28125q1.96875 -3.28125 4.65625 -3.28125q3.4375 0 4.625 2.375q-3.34375 1.53125 -3.34375 7.9375076l0 13.5625q0 6.8125 3.46875 8.40625zm-11.125 -7.125l0 -16.625q-2.5625 -2.0625 -5.78125 -2.0625q-4.03125 0 -6.484375 3.125q-2.453125 3.125 -2.453125 7.96875q0 3.4375 1.1875 6.03125q1.1875 2.59375 3.0 3.65625q1.8125 1.0625 4.0625 1.0625q3.46875 0 6.46875 -3.15625zm17.15625 22.09375l0 -28.40625q0 -8.46875 4.140625 -13.656258q4.140625 -5.1875 11.609375 -5.1875q7.28125 0 11.546875 4.765625q4.265625 4.7656326 4.265625 12.328133q0 7.6875 -4.390625 12.671875q-4.390625 4.984375 -12.015625 4.984375q-3.96875 0 -7.34375 -1.71875l0 14.21875l-7.8125 0zm7.875 -21.0625q1.28125 0.9375 3.234375 1.5q1.953125 0.5625 3.484375 0.5625q4.3125 0 6.578125 -2.8125q2.265625 -2.8125 2.265625 -8.21875q0 -5.25 -2.25 -8.03125q-2.25 -2.78125 -5.6875 -2.78125q-3.40625 0 -5.515625 2.84375q-2.109375 2.84375 -2.109375 8.25l0 8.6875zm56.6875 5.0q-6.25 3.65625 -14.34375 3.65625q-5.75 0 -9.390625 -2.546875q-3.640625 -2.546875 -3.640625 -7.078125q0 -2.5 1.625 -4.71875q1.625 -2.21875 4.625 -3.46875q-2.65625 -0.6875 -4.140625 -2.671875q-1.484375 -1.984375 -1.484375 -4.609375q0 -3.53125 3.40625 -6.6718826q3.40625 -3.140625 9.90625 -3.140625q5.8125 0 11.96875 2.3125l-2.1875 6.2812576q-4.96875 -2.25 -10.03125 -2.25q-2.21875 0 -3.609375 1.015625q-1.390625 1.015625 -1.390625 2.703125q0 1.78125 1.546875 2.90625q1.546875 1.125 4.734375 1.125q2.71875 0 5.375 -0.1875l0 6.0q-3.1875 -0.1875 -5.78125 -0.1875q-3.0 0 -4.71875 1.34375q-1.71875 1.34375 -1.71875 3.46875q0 1.9375 1.59375 3.015625q1.59375 1.078125 4.59375 1.078125q5.625 0 10.0 -3.34375l3.0625 5.96875zm-4.65625 -47.375008l-5.53125 10.3125l-5.9375 0l3.40625 -10.3125l8.0625 0zm42.90625 23.375008l-8.375 -0.125q6.28125 5.59375 6.28125 11.96875q0 4.375 -1.96875 8.03125q-1.96875 3.65625 -5.609375 5.671875q-3.640625 2.015625 -8.484375 2.015625q-7.5 0 -11.8125 -4.546875q-4.3125 -4.546875 -4.3125 -12.015625q0 -7.90625 4.828125 -12.718758q4.828125 -4.8125 12.765625 -4.8125l16.6875 0l0 6.5312576zm-10.21875 11.71875q0 -3.21875 -1.78125 -6.4375q-1.78125 -3.21875 -4.8125 -5.40625q-4.53125 0 -6.9375 2.8125q-2.40625 2.8125 -2.40625 7.875q0 4.78125 2.1875 7.703125q2.1875 2.921875 6.125 2.921875q3.6875 0 5.65625 -2.640625q1.96875 -2.640625 1.96875 -6.828125zm42.6875 12.28125q-6.25 3.65625 -14.34375 3.65625q-5.75 0 -9.390625 -2.546875q-3.640625 -2.546875 -3.640625 -7.078125q0 -2.5 1.625 -4.71875q1.625 -2.21875 4.625 -3.46875q-2.65625 -0.6875 -4.140625 -2.671875q-1.484375 -1.984375 -1.484375 -4.609375q0 -3.53125 3.40625 -6.6718826q3.40625 -3.140625 9.90625 -3.140625q5.8125 0 11.96875 2.3125l-2.1875 6.2812576q-4.96875 -2.25 -10.03125 -2.25q-2.21875 0 -3.609375 1.015625q-1.390625 1.015625 -1.390625 2.703125q0 1.78125 1.546875 2.90625q1.546875 1.125 4.734375 1.125q2.71875 0 5.375 -0.1875l0 6.0q-3.1875 -0.1875 -5.78125 -0.1875q-3.0 0 -4.71875 1.34375q-1.71875 1.34375 -1.71875 3.46875q0 1.9375 1.59375 3.015625q1.59375 1.078125 4.59375 1.078125q5.625 0 10.0 -3.34375l3.0625 5.96875zm18.8125 -0.0625q-1.96875 3.5625 -6.59375 3.5625q-5.6875 0 -5.6875 -7.53125l0 -26.500008l7.875 0l0 22.906258q0 3.3125 1.0 5.078125q1.0 1.765625 3.40625 2.484375zm49.4375 -23.875l-11.28125 0l0 16.6875q0 4.25 3.125 4.25q1.65625 0 3.59375 -0.78125l0 6.71875q-2.84375 0.5625 -5.25 0.5625q-4.46875 0 -6.90625 -2.578125q-2.4375 -2.578125 -2.4375 -7.328125l0 -17.53125l-8.3125 0l0 -6.5937576l27.46875 0l0 6.5937576zm3.71875 10.03125q0 -5.3125 2.15625 -9.296875q2.15625 -3.9843826 5.734375 -5.9843826q3.578125 -2.0 8.171875 -2.0q7.625 0 11.84375 4.6875q4.21875 4.6875076 4.21875 12.593758q0 8.21875 -4.390625 12.84375q-4.390625 4.625 -11.671875 4.625q-7.5625 0 -11.8125 -4.734375q-4.25 -4.734375 -4.25 -12.734375zm8.125 0q0 11.09375 7.9375 11.09375q3.59375 0 5.765625 -2.828125q2.171875 -2.828125 2.171875 -8.265625q0 -10.875 -7.9375 -10.875q-3.625 0 -5.78125 2.84375q-2.15625 2.84375 -2.15625 8.03125zm84.0 -25.218758l-3.40625 6.53125q-1.4375 -1.28125 -4.4375 -2.546875q-3.0 -1.265625 -5.15625 -1.265625q-6.75 0 -10.65625 4.578125q-3.90625 4.578125 -3.90625 12.265633q0 7.3125 3.828125 11.6875q3.828125 4.375 10.421875 4.375q4.34375 0 7.15625 -2.375l0 -9.0l-6.34375 0l0 -6.9375l14.46875 0l0 20.5q-2.90625 2.375 -7.484375 3.703125q-4.578125 1.328125 -9.109375 1.328125q-9.84375 0 -15.609375 -6.453125q-5.765625 -6.453125 -5.765625 -17.046875q0 -10.593758 6.28125 -17.218758q6.28125 -6.625 16.90625 -6.625q7.53125 0 12.8125 4.5zm30.21875 42.062508l0 -19.34375q0 -4.28125 -1.640625 -6.25q-1.640625 -1.96875 -5.359375 -1.96875q-1.71875 0 -3.671875 0.96875q-1.953125 0.96875 -3.046875 2.40625l0 24.1875l-7.8125 0l0 -33.468758l5.625 0l1.4375 3.125q3.1875 -3.75 9.40625 -3.75q5.96875 0 9.421875 3.578125q3.453125 3.5781326 3.453125 9.984383l0 20.53125l-7.8125 0zm14.0625 -16.8125q0 -7.65625 4.421875 -12.468758q4.421875 -4.8125 11.671875 -4.8125q7.625 0 11.84375 4.625q4.21875 4.6250076 4.21875 12.656258q0 8.0 -4.296875 12.71875q-4.296875 4.71875 -11.765625 4.71875q-7.625 0 -11.859375 -4.765625q-4.234375 -4.765625 -4.234375 -12.671875zm8.125 0q0 11.0625 7.96875 11.0625q3.65625 0 5.796875 -2.875q2.140625 -2.875 2.140625 -8.1875q0 -10.90625 -7.9375 -10.90625q-3.65625 0 -5.8125 2.875q-2.15625 2.875 -2.15625 8.03125zm69.03125 16.8125l0 -20.96875q0 -6.59375 -5.90625 -6.59375q-1.75 0 -3.375 1.03125q-1.625 1.03125 -2.28125 2.375l0 24.15625l-7.8125 0l0 -22.1875q0 -2.46875 -1.53125 -3.921875q-1.53125 -1.453125 -4.3125 -1.453125q-1.46875 0 -3.203125 1.09375q-1.734375 1.09375 -2.515625 2.40625l0 24.0625l-7.8125 0l0 -33.468758l5.375 0l1.59375 2.9375q3.25 -3.5625 8.40625 -3.5625q6.65625 0 10.03125 3.625q1.46875 -1.65625 4.09375 -2.640625q2.625 -0.984375 5.25 -0.984375q5.59375 0 8.703125 3.203125q3.109375 3.2031326 3.109375 8.796883l0 22.09375l-7.8125 0zm46.125 -14.34375l-23.90625 0q0.21875 4.0 2.75 6.21875q2.53125 2.21875 6.8125 2.21875q5.34375 0 8.125 -2.78125l3.03125 5.96875q-4.125 3.34375 -12.3125 3.34375q-7.65625 0 -12.109375 -4.484375q-4.453125 -4.484375 -4.453125 -12.515625q0 -7.90625 4.890625 -12.812508q4.890625 -4.90625 11.734375 -4.90625q7.28125 0 11.6875 4.34375q4.40625 4.3437576 4.40625 11.062508q0 1.4375 -0.65625 4.34375zm-23.625 -5.875l16.4375 0q-0.8125 -7.34375 -8.125 -7.34375q-6.6875 0 -8.3125 7.34375zm29.71875 5.34375l0 -7.34375l16.53125 0l0 7.34375l-16.53125 0z" fill-rule="nonzero"></path><path fill="#ffffff" d="m398.15625 227.93135l3.0 -7.28125q4.8125 3.375 9.46875 3.375q7.15625 0 7.15625 -5.0q0 -2.34375 -1.6875 -4.46875q-1.6875 -2.125 -6.953125 -4.765625q-5.265625 -2.640625 -7.09375 -4.34375q-1.828125 -1.703125 -2.8125 -4.046875q-0.984375 -2.34375 -0.984375 -5.1875q0 -5.3125 3.890625 -8.8125q3.890625 -3.5 9.984375 -3.5q7.9375 0 11.65625 2.96875l-2.46875 7.0q-4.28125 -3.0625 -9.03125 -3.0625q-2.8125 0 -4.359375 1.484375q-1.546875 1.484375 -1.546875 3.859375q0 3.9375 8.71875 8.1875q4.59375 2.25 6.625 4.140625q2.03125 1.890625 3.09375 4.40625q1.0625 2.515625 1.0625 5.609375q0 5.5625 -4.390625 9.15625q-4.390625 3.59375 -11.765625 3.59375q-6.40625 0 -11.5625 -3.3125zm56.09375 2.53125l0 -20.625q0 -3.09375 -1.9375 -4.96875q-1.9375 -1.875 -5.0625 -1.875q-1.9375 0 -3.90625 1.046875q-1.96875 1.046875 -2.8125 2.390625l0 24.03125l-7.9375 0l0 -45.9375l7.9375 -1.875l0 16.46875q3.03125 -2.75 8.34375 -2.75q6.28125 0 9.75 3.484375q3.46875 3.484375 3.46875 9.984375l0 20.625l-7.84375 0zm46.15625 -14.34375l-23.90625 0q0.21875 4.0 2.75 6.21875q2.53125 2.21875 6.8125 2.21875q5.34375 0 8.125 -2.78125l3.03125 5.96875q-4.125 3.34375 -12.3125 3.34375q-7.65625 0 -12.109375 -4.484375q-4.453125 -4.484375 -4.453125 -12.515625q0 -7.90625 4.890625 -12.8125q4.890625 -4.90625 11.734375 -4.90625q7.28125 0 11.6875 4.34375q4.40625 4.34375 4.40625 11.0625q0 1.4375 -0.65625 4.34375zm-23.625 -5.875l16.4375 0q-0.8125 -7.34375 -8.125 -7.34375q-6.6875 0 -8.3125 7.34375zm31.875 -25.71875l7.8125 -1.875l0 37.625q0 6.1875 3.6875 7.375q-1.8125 3.4375 -6.1875 3.4375q-5.3125 0 -5.3125 -7.375l0 -39.1875zm18.875 0l7.8125 -1.875l0 37.625q0 6.1875 3.6875 7.375q-1.8125 3.4375 -6.1875 3.4375q-5.3125 0 -5.3125 -7.375l0 -39.1875zm18.75 16.53125q0 -2.34375 1.640625 -3.984375q1.640625 -1.640625 3.984375 -1.640625q2.34375 0 3.984375 1.640625q1.640625 1.640625 1.640625 3.984375q0 2.34375 -1.640625 4.0q-1.640625 1.65625 -3.984375 1.65625q-2.34375 0 -3.984375 -1.65625q-1.640625 -1.65625 -1.640625 -4.0zm1.34375 41.09375l-2.65625 -3.40625q5.71875 -4.28125 5.71875 -6.71875q0 -0.9375 -0.65625 -1.84375q-2.96875 -1.4375 -2.96875 -4.03125q0 -1.875 1.5625 -3.109375q1.5625 -1.234375 3.875 -1.234375q2.15625 0 3.765625 1.640625q1.609375 1.640625 1.609375 3.796875q0 3.96875 -1.859375 7.234375q-1.859375 3.265625 -8.390625 7.671875z" fill-rule="nonzero"></path><path fill="#ffffff" d="m311.375 304.7751l-3.40625 -9.28125l-15.6875 0l-3.125 9.28125l-9.09375 0l18.3125 -46.40625l3.5 0l18.4375 46.40625l-8.9375 0zm-11.28125 -32.375l-5.5 16.875l11.0 0l-5.5 -16.875zm55.46875 32.375l-8.625 0l-7.5 -24.78125l-9.53125 24.78125l-8.6875 0l14.71875 -34.3125q-0.71875 -2.5 -1.46875 -4.0q-1.21875 -2.4375 -3.96875 -2.4375q-1.9375 0 -4.1875 1.09375l-2.09375 -6.53125q3.8125 -1.21875 7.21875 -1.21875q5.90625 0 8.90625 4.4375q1.65625 2.4375 2.875 6.09375l12.34375 36.875zm35.78125 0l-8.625 0l-7.5 -24.78125l-9.53125 24.78125l-8.6875 0l14.71875 -34.3125q-0.71875 -2.5 -1.46875 -4.0q-1.21875 -2.4375 -3.96875 -2.4375q-1.9375 0 -4.1875 1.09375l-2.09375 -6.53125q3.8125 -1.21875 7.21875 -1.21875q5.90625 0 8.90625 4.4375q1.65625 2.4375 2.875 6.09375l12.34375 36.875zm36.6875 -1.84375q-1.125 2.46875 -4.9375 2.46875q-3.0 0 -5.125 -3.625q-3.21875 3.625 -9.40625 3.625q-6.53125 0 -10.421875 -4.546875q-3.890625 -4.546875 -3.890625 -12.640625q0 -7.53125 4.34375 -12.546875q4.34375 -5.015625 11.65625 -5.015625q5.5 0 8.375 3.28125q1.96875 -3.28125 4.65625 -3.28125q3.4375 0 4.625 2.375q-3.34375 1.53125 -3.34375 7.9375l0 13.5625q0 6.8125 3.46875 8.40625zm-11.125 -7.125l0 -16.625q-2.5625 -2.0625 -5.78125 -2.0625q-4.03125 0 -6.484375 3.125q-2.453125 3.125 -2.453125 7.96875q0 3.4375 1.1875 6.03125q1.1875 2.59375 3.0 3.65625q1.8125 1.0625 4.0625 1.0625q3.46875 0 6.46875 -3.15625zm2.40625 -41.343735l-5.5 10.312485l-5.9375 0l3.375 -10.312485l8.0625 0zm37.65625 27.843735l-6.0 0q-3.8125 0 -7.09375 2.609375q-3.28125 2.609375 -3.28125 6.734375q0 2.75 1.625 4.65625q1.625 1.90625 7.21875 2.53125q3.6875 0.375 5.453125 1.0q1.765625 0.625 3.109375 1.84375q1.34375 1.21875 2.015625 2.828125q0.671875 1.609375 0.671875 3.515625q0 4.25 -3.234375 7.0625q-3.234375 2.8125 -8.109375 2.8125q-2.5625 0 -4.59375 -0.4375l0.90625 -5.71875q1.5625 0.46875 3.4375 0.46875q1.78125 0 2.90625 -0.9375q1.125 -0.9375 1.125 -2.40625q0 -1.90625 -1.375 -2.796875q-1.375 -0.890625 -6.875 -1.171875q-5.71875 -0.25 -9.15625 -3.53125q-3.4375 -3.28125 -3.4375 -8.75q0 -4.34375 2.71875 -7.828125q2.71875 -3.484375 7.5 -5.421875q-3.875 -0.71875 -6.15625 -3.421875q-2.28125 -2.703125 -2.28125 -6.421875q0 -5.40625 4.078125 -8.796875q4.078125 -3.390625 10.640625 -3.390625q5.125 0 10.625 2.0l-2.1875 6.34375q-4.34375 -2.0 -8.8125 -2.0q-2.84375 0 -4.53125 1.59375q-1.6875 1.59375 -1.6875 4.1875q0 2.0625 1.078125 3.46875q1.078125 1.40625 3.203125 2.140625q2.125 0.734375 5.34375 0.765625l5.15625 0.0625l0 6.40625zm32.59375 -4.40625l-11.28125 0l0 16.6875q0 4.25 3.125 4.25q1.65625 0 3.59375 -0.78125l0 6.71875q-2.84375 0.5625 -5.25 0.5625q-4.46875 0 -6.90625 -2.578125q-2.4375 -2.578125 -2.4375 -7.328125l0 -17.53125l-8.3125 0l0 -6.59375l27.46875 0l0 6.59375zm32.25 23.9375q-6.25 3.65625 -14.34375 3.65625q-5.75 0 -9.390625 -2.546875q-3.640625 -2.546875 -3.640625 -7.078125q0 -2.5 1.625 -4.71875q1.625 -2.21875 4.625 -3.46875q-2.65625 -0.6875 -4.140625 -2.671875q-1.484375 -1.984375 -1.484375 -4.609375q0 -3.53125 3.40625 -6.671875q3.40625 -3.140625 9.90625 -3.140625q5.8125 0 11.96875 2.3125l-2.1875 6.28125q-4.96875 -2.25 -10.03125 -2.25q-2.21875 0 -3.609375 1.015625q-1.390625 1.015625 -1.390625 2.703125q0 1.78125 1.546875 2.90625q1.546875 1.125 4.734375 1.125q2.71875 0 5.375 -0.1875l0 6.0q-3.1875 -0.1875 -5.78125 -0.1875q-3.0 0 -4.71875 1.34375q-1.71875 1.34375 -1.71875 3.46875q0 1.9375 1.59375 3.015625q1.59375 1.078125 4.59375 1.078125q5.625 0 10.0 -3.34375l3.0625 5.96875zm49.6875 -23.9375l-11.28125 0l0 16.6875q0 4.25 3.125 4.25q1.65625 0 3.59375 -0.78125l0 6.71875q-2.84375 0.5625 -5.25 0.5625q-4.46875 0 -6.90625 -2.578125q-2.4375 -2.578125 -2.4375 -7.328125l0 -17.53125l-8.3125 0l0 -6.59375l27.46875 0l0 6.59375zm3.71875 10.03125q0 -5.3125 2.15625 -9.296875q2.15625 -3.984375 5.734375 -5.984375q3.578125 -2.0 8.171875 -2.0q7.625 0 11.84375 4.6875q4.21875 4.6875 4.21875 12.59375q0 8.21875 -4.390625 12.84375q-4.390625 4.625 -11.671875 4.625q-7.5625 0 -11.8125 -4.734375q-4.25 -4.734375 -4.25 -12.734375zm8.125 0q0 11.09375 7.9375 11.09375q3.59375 0 5.765625 -2.828125q2.171875 -2.828125 2.171875 -8.265625q0 -10.875 -7.9375 -10.875q-3.625 0 -5.78125 2.84375q-2.15625 2.84375 -2.15625 8.03125zm39.53125 4.90625l-3.25 0q-2.4375 -15.625 -2.4375 -21.84375l0 -12.8125l8.125 0l0 12.78125q0 6.25 -2.4375 21.875zm-1.375 2.3125q2.125 0 3.609375 1.5q1.484375 1.5 1.484375 3.625q0 2.125 -1.484375 3.625q-1.484375 1.5 -3.609375 1.5q-2.125 0 -3.625 -1.5q-1.5 -1.5 -1.5 -3.625q0 -2.125 1.5 -3.625q1.5 -1.5 3.625 -1.5zm24.875 -2.3125l-3.25 0q-2.4375 -15.625 -2.4375 -21.84375l0 -12.8125l8.125 0l0 12.78125q0 6.25 -2.4375 21.875zm-1.375 2.3125q2.125 0 3.609375 1.5q1.484375 1.5 1.484375 3.625q0 2.125 -1.484375 3.625q-1.484375 1.5 -3.609375 1.5q-2.125 0 -3.625 -1.5q-1.5 -1.5 -1.5 -3.625q0 -2.125 1.5 -3.625q1.5 -1.5 3.625 -1.5zm24.875 -2.3125l-3.25 0q-2.4375 -15.625 -2.4375 -21.84375l0 -12.8125l8.125 0l0 12.78125q0 6.25 -2.4375 21.875zm-1.375 2.3125q2.125 0 3.609375 1.5q1.484375 1.5 1.484375 3.625q0 2.125 -1.484375 3.625q-1.484375 1.5 -3.609375 1.5q-2.125 0 -3.625 -1.5q-1.5 -1.5 -1.5 -3.625q0 -2.125 1.5 -3.625q1.5 -1.5 3.625 -1.5z" fill-rule="nonzero"></path><path fill="#ffffff" d="m321.86047 441.80817l0 5.328125l6.390625 0l0 2.25l-6.390625 0l0 6.96875l8.765625 0l0 2.375l-11.390625 0l0 -19.296875l11.515625 0l0 2.375l-8.890625 0zm23.69754 16.921875l-2.78125 0l-3.59375 -11.4375l-4.5 11.4375l-2.78125 0l6.125 -14.375q-0.53125 -1.84375 -1.015625 -2.6875q-0.484375 -0.84375 -1.609375 -0.84375q-0.6875 0 -1.75 0.484375l-0.671875 -2.109375q1.53125 -0.453125 2.734375 -0.453125q2.0 0 2.9453125 1.0859375q0.9453125 1.0859375 1.5703125 2.9765625l5.328125 15.921875zm14.122101 0l-2.78125 0l-3.59375 -11.4375l-4.5 11.4375l-2.78125 0l6.125 -14.375q-0.53125 -1.84375 -1.015625 -2.6875q-0.484375 -0.84375 -1.609375 -0.84375q-0.6875 0 -1.75 0.484375l-0.671875 -2.109375q1.53125 -0.453125 2.734375 -0.453125q2.0 0 2.9453125 1.0859375q0.9453125 1.0859375 1.5703125 2.9765625l5.328125 15.921875zm13.05957 3.671875l-2.46875 0.625l0 -12.515625q0 -2.328125 -0.7421875 -3.1953125q-0.7421875 -0.8671875 -2.1640625 -0.8671875q-0.90625 0 -1.7890625 0.5625q-0.8828125 0.5625 -1.3828125 1.328125l0 10.390625l-2.515625 0l0 -14.125l1.703125 0l0.78125 1.765625q1.5 -2.03125 4.046875 -2.03125q2.21875 0 3.375 1.4765625q1.15625 1.4765625 1.15625 4.3359375l0 12.25zm14.874481 -17.796875l-6.1875 14.390625l-0.640625 0l-6.078125 -14.390625l2.8125 0l3.703125 9.71875l3.703125 -9.71875l2.6875 0zm6.479187 14.359375q-4.375 0 -4.375 -4.078125l0 -10.28125l2.53125 0l0 9.96875q0 2.15625 1.84375 2.296875l0 2.09375zm15.20285 -0.234375l-3.265625 0l-4.359375 -6.390625l-2.109375 2.34375l0 4.046875l-2.53125 0l0 -14.125l2.53125 0l0 7.0l5.8125 -7.0l3.203125 0l-5.265625 5.9375l5.984375 8.1875zm13.306824 3.671875l-2.46875 0.625l0 -12.515625q0 -2.328125 -0.7421875 -3.1953125q-0.7421875 -0.8671875 -2.1640625 -0.8671875q-0.90625 0 -1.7890625 0.5625q-0.8828125 0.5625 -1.3828125 1.328125l0 10.390625l-2.515625 0l0 -14.125l1.703125 0l0.78125 1.765625q1.5 -2.03125 4.046875 -2.03125q2.21875 0 3.375 1.4765625q1.15625 1.4765625 1.15625 4.3359375l0 12.25zm-1.953125 -25.0l-2.359375 4.40625l-2.078125 0l1.453125 -4.40625l2.984375 0zm24.311432 21.328125l-5.4375 -8.890625l-2.578125 3.65625l0 5.234375l-2.625 0l0 -19.296875l2.625 0l0 10.484375l7.1875 -10.484375l2.921875 0l-5.75 8.375l6.59375 10.921875l-2.9375 0zm10.108582 -14.390625q3.03125 0 4.6953125 1.953125q1.6640625 1.953125 1.6640625 5.328125q0 3.5 -1.75 5.4375q-1.75 1.9375 -4.609375 1.9375q-3.015625 0 -4.7109375 -1.9765625q-1.6953125 -1.9765625 -1.6953125 -5.3984375q0 -3.25 1.7734375 -5.265625q1.7734375 -2.015625 4.6328125 -2.015625zm0 12.609375q1.765625 0 2.7421875 -1.4609375q0.9765625 -1.4609375 0.9765625 -3.8671875q0 -5.234375 -3.71875 -5.234375q-1.765625 0 -2.7734375 1.421875q-1.0078125 1.421875 -1.0078125 3.8125q0 5.328125 3.78125 5.328125zm13.525574 2.015625q-4.375 0 -4.375 -4.078125l0 -10.28125l2.53125 0l0 9.96875q0 2.15625 1.84375 2.296875l0 2.09375zm14.20285 -14.359375l-6.1875 14.390625l-0.640625 0l-6.078125 -14.390625l2.8125 0l3.703125 9.71875l3.703125 -9.71875l2.6875 0zm7.479187 -0.265625q3.03125 0 4.6953125 1.953125q1.6640625 1.953125 1.6640625 5.328125q0 3.5 -1.75 5.4375q-1.75 1.9375 -4.609375 1.9375q-3.015625 0 -4.7109375 -1.9765625q-1.6953125 -1.9765625 -1.6953125 -5.3984375q0 -3.25 1.7734375 -5.265625q1.7734375 -2.015625 4.6328125 -2.015625zm0 12.609375q1.765625 0 2.7421875 -1.4609375q0.9765625 -1.4609375 0.9765625 -3.8671875q0 -5.234375 -3.71875 -5.234375q-1.765625 0 -2.7734375 1.421875q-1.0078125 1.421875 -1.0078125 3.8125q0 5.328125 3.78125 5.328125zm3.15625 -19.546875l-2.34375 4.40625l-2.078125 0l1.53125 -4.40625l2.890625 0zm15.353699 9.3125l-4.796875 0l0 8.015625q0 1.09375 0.3671875 1.6015625q0.3671875 0.5078125 1.1953125 0.5078125q0.609375 0 1.40625 -0.328125l0.328125 2.109375q-1.125 0.34375 -2.21875 0.34375q-1.734375 0 -2.6640625 -0.9921875q-0.9296875 -0.9921875 -0.9296875 -2.8515625l0 -8.40625l-3.5625 0l0 -2.109375l10.875 0l0 2.109375zm13.372986 15.6875l-2.46875 0.625l0 -12.515625q0 -2.328125 -0.7421875 -3.1953125q-0.7421875 -0.8671875 -2.1640625 -0.8671875q-0.90625 0 -1.7890625 0.5625q-0.8828125 0.5625 -1.3828125 1.328125l0 10.390625l-2.515625 0l0 -14.125l1.703125 0l0.78125 1.765625q1.5 -2.03125 4.046875 -2.03125q2.21875 0 3.375 1.4765625q1.15625 1.4765625 1.15625 4.3359375l0 12.25zm13.061951 -15.6875l-4.796875 0l0 8.015625q0 1.09375 0.3671875 1.6015625q0.3671875 0.5078125 1.1953125 0.5078125q0.609375 0 1.40625 -0.328125l0.328125 2.109375q-1.125 0.34375 -2.21875 0.34375q-1.734375 0 -2.6640625 -0.9921875q-0.9296875 -0.9921875 -0.9296875 -2.8515625l0 -8.40625l-3.5625 0l0 -2.109375l10.875 0l0 2.109375zm15.076172 12.25q-1.765625 0 -2.53125 -0.421875q-0.765625 -0.421875 -1.109375 -1.484375q-1.4375 1.9375 -3.96875 1.9375q-2.71875 0 -4.3515625 -1.9296875q-1.6328125 -1.9296875 -1.6328125 -5.3203125q0 -3.265625 1.7890625 -5.3359375q1.7890625 -2.0703125 4.7734375 -2.0703125q1.953125 0 3.53125 1.453125q0.46875 -0.828125 1.203125 -1.140625q0.734375 -0.3125 2.140625 -0.3125l0 1.4375q-0.6875 0.25 -0.9453125 0.71875q-0.2578125 0.46875 -0.2578125 1.4375l0 7.125q0 1.171875 0.328125 1.6875q0.328125 0.515625 1.03125 0.71875l0 1.5zm-3.890625 -3.796875l0 -7.53125q-1.234375 -1.1875 -2.71875 -1.1875q-2.0625 0 -3.203125 1.421875q-1.140625 1.421875 -1.140625 3.84375q0 2.484375 1.1484375 3.8203125q1.1484375 1.3359375 2.9296875 1.3359375q1.71875 0 2.984375 -1.703125zm28.139221 -14.40625l-1.09375 2.171875q-1.984375 -1.46875 -3.90625 -1.46875q-3.03125 0 -4.78125 2.1328125q-1.75 2.1328125 -1.75 5.6484375q0 3.359375 1.71875 5.3984375q1.71875 2.0390625 4.6875 2.0390625q2.109375 0 3.40625 -1.265625l0 -4.515625l-2.671875 0l0 -2.25l5.3125 0l0 8.421875q-1.046875 0.890625 -2.9375 1.4375q-1.890625 0.546875 -3.671875 0.546875q-3.984375 0 -6.296875 -2.7109375q-2.3125 -2.7109375 -2.3125 -7.1953125q0 -4.484375 2.53125 -7.2734375q2.53125 -2.7890625 6.84375 -2.7890625q3.015625 0 4.921875 1.671875zm13.136169 17.96875l0 -8.21875q0 -2.25 -0.6796875 -3.15625q-0.6796875 -0.90625 -2.2734375 -0.90625q-0.859375 0 -1.796875 0.515625q-0.9375 0.515625 -1.4375 1.265625l0 10.5l-2.5 0l0 -14.125l1.71875 0l0.78125 1.828125q1.25 -2.09375 4.046875 -2.09375q4.640625 0 4.640625 5.65625l0 8.734375l-2.5 0zm4.955261 -7.09375q0 -3.265625 1.7578125 -5.28125q1.7578125 -2.015625 4.6328125 -2.015625q3.03125 0 4.703125 1.9375q1.671875 1.9375 1.671875 5.359375q0 3.421875 -1.7109375 5.390625q-1.7109375 1.96875 -4.6640625 1.96875q-3.015625 0 -4.703125 -1.9921875q-1.6875 -1.9921875 -1.6875 -5.3671875zm2.640625 0q0 5.3125 3.75 5.3125q1.75 0 2.75 -1.421875q1.0 -1.421875 1.0 -3.890625q0 -5.25 -3.75 -5.25q-1.71875 0 -2.734375 1.3984375q-1.015625 1.3984375 -1.015625 3.8515625zm28.929321 7.09375l0 -8.9375q0 -3.34375 -2.890625 -3.34375q-0.90625 0 -1.6953125 0.5625q-0.7890625 0.5625 -1.0859375 1.28125l0 10.4375l-2.5 0l0 -10.03125q0 -1.046875 -0.78125 -1.6484375q-0.78125 -0.6015625 -2.078125 -0.6015625q-0.75 0 -1.6015625 0.5859375q-0.8515625 0.5859375 -1.2109375 1.2734375l0 10.421875l-2.5 0l0 -14.125l1.640625 0l0.828125 1.640625q1.453125 -1.90625 3.625 -1.90625q3.03125 0 4.234375 1.890625q0.421875 -0.796875 1.5703125 -1.34375q1.1484375 -0.546875 2.3671875 -0.546875q2.1875 0 3.3828125 1.3046875q1.1953125 1.3046875 1.1953125 3.6484375l0 9.4375l-2.5 0zm17.673645 -6.8125l-10.171875 0q0 2.46875 1.359375 3.8125q1.1875 1.15625 3.078125 1.15625q2.140625 0 3.578125 -1.25l1.0625 1.796875q-0.578125 0.578125 -1.78125 1.0q-1.5 0.5625 -3.34375 0.5625q-2.671875 0 -4.53125 -1.8125q-2.0625 -1.984375 -2.0625 -5.34375q0 -3.5 2.125 -5.609375q1.890625 -1.890625 4.484375 -1.890625q3.03125 0 4.734375 1.703125q1.671875 1.640625 1.671875 4.34375q0 0.828125 -0.203125 1.53125zm-6.078125 -5.46875q-1.671875 0 -2.8125 1.09375q-1.078125 1.015625 -1.21875 2.546875l7.8125 0q0 -1.515625 -0.953125 -2.53125q-1.03125 -1.109375 -2.828125 -1.109375z" fill-rule="nonzero"></path><path fill="#ffffff" d="m357.849 472.7613l0 5.328125l6.390625 0l0 2.25l-6.390625 0l0 6.96875l8.765625 0l0 2.375l-11.390625 0l0 -19.296875l11.515625 0l0 2.375l-8.890625 0zm22.744415 10.765625q0 6.390625 -5.765625 6.390625q-2.78125 0 -4.1328125 -1.5703125q-1.3515625 -1.5703125 -1.3515625 -4.7890625l0 -8.0l2.515625 0l0 8.203125q0 4.140625 3.046875 4.140625q1.671875 0 2.4296875 -0.9765625q0.7578125 -0.9765625 0.7578125 -3.1015625l0 -8.265625l2.5 0l0 7.96875zm16.416138 -5.875l-4.203125 0q1.53125 1.15625 2.3828125 2.6484375q0.8515625 1.4921875 0.8515625 3.0078125q0 2.859375 -1.7265625 4.75q-1.7265625 1.890625 -4.6796875 1.890625q-2.984375 0 -4.71875 -1.921875q-1.734375 -1.921875 -1.734375 -5.0625q0 -3.34375 1.9296875 -5.375q1.9296875 -2.03125 5.0859375 -2.03125l6.8125 0l0 2.09375zm-3.609375 5.6875q0 -1.59375 -0.8828125 -3.140625q-0.8828125 -1.546875 -2.2578125 -2.546875q-2.140625 0 -3.296875 1.359375q-1.15625 1.359375 -1.15625 3.796875q0 2.3125 1.03125 3.703125q1.03125 1.390625 2.90625 1.390625q1.765625 0 2.7109375 -1.28125q0.9453125 -1.28125 0.9453125 -3.28125zm15.361237 -5.671875l-4.796875 0l0 8.015625q0 1.09375 0.3671875 1.6015625q0.3671875 0.5078125 1.1953125 0.5078125q0.609375 0 1.40625 -0.328125l0.328125 2.109375q-1.125 0.34375 -2.21875 0.34375q-1.734375 0 -2.6640625 -0.9921875q-0.9296875 -0.9921875 -0.9296875 -2.8515625l0 -8.40625l-3.5625 0l0 -2.109375l10.875 0l0 2.109375zm15.076141 12.25q-1.765625 0 -2.53125 -0.421875q-0.765625 -0.421875 -1.109375 -1.484375q-1.4375 1.9375 -3.96875 1.9375q-2.71875 0 -4.3515625 -1.9296875q-1.6328125 -1.9296875 -1.6328125 -5.3203125q0 -3.265625 1.7890625 -5.3359375q1.7890625 -2.0703125 4.7734375 -2.0703125q1.953125 0 3.53125 1.453125q0.46875 -0.828125 1.203125 -1.140625q0.734375 -0.3125 2.140625 -0.3125l0 1.4375q-0.6875 0.25 -0.9453125 0.71875q-0.2578125 0.46875 -0.2578125 1.4375l0 7.125q0 1.171875 0.328125 1.6875q0.328125 0.515625 1.03125 0.71875l0 1.5zm-3.890625 -3.796875l0 -7.53125q-1.234375 -1.1875 -2.71875 -1.1875q-2.0625 0 -3.203125 1.421875q-1.140625 1.421875 -1.140625 3.84375q0 2.484375 1.1484375 3.8203125q1.1484375 1.3359375 2.9296875 1.3359375q1.71875 0 2.984375 -1.703125zm0.109375 -17.765625l-2.34375 4.40625l-2.078125 0l1.453125 -4.40625l2.96875 0zm12.0303955 1.34375q2.859375 0 4.5 2.6171875q1.640625 2.6171875 1.640625 7.3984375q0 5.015625 -1.6015625 7.625q-1.6015625 2.609375 -4.6328125 2.609375q-2.890625 0 -4.515625 -2.5859375q-1.625 -2.5859375 -1.625 -7.3671875q0 -5.0 1.625 -7.6484375q1.625 -2.6484375 4.609375 -2.6484375zm3.53125 8.71875q-0.0625 -2.859375 -0.9609375 -4.7734375q-0.8984375 -1.9140625 -2.6640625 -1.9140625q-3.234375 0 -3.546875 6.6875l7.171875 0zm0.03125 2.015625l-7.21875 0q0.171875 7.5 3.65625 7.5q3.453125 0 3.5625 -7.5zm9.921417 9.484375q-4.375 0 -4.375 -4.078125l0 -10.28125l2.53125 0l0 9.96875q0 2.15625 1.84375 2.296875l0 2.09375zm8.405945 -14.625q3.03125 0 4.6953125 1.953125q1.6640625 1.953125 1.6640625 5.328125q0 3.5 -1.75 5.4375q-1.75 1.9375 -4.609375 1.9375q-3.015625 0 -4.7109375 -1.9765625q-1.6953125 -1.9765625 -1.6953125 -5.3984375q0 -3.25 1.7734375 -5.265625q1.7734375 -2.015625 4.6328125 -2.015625zm0 12.609375q1.765625 0 2.7421875 -1.4609375q0.9765625 -1.4609375 0.9765625 -3.8671875q0 -5.234375 -3.71875 -5.234375q-1.765625 0 -2.7734375 1.421875q-1.0078125 1.421875 -1.0078125 3.8125q0 5.328125 3.78125 5.328125zm18.025574 -9.609375q-1.328125 -0.890625 -2.90625 -0.890625q-2.015625 0 -3.1953125 1.4375q-1.1796875 1.4375 -1.1796875 3.9375q0 3.734375 4.5 4.640625q2.171875 0.4375 3.1953125 1.3671875q1.0234375 0.9296875 1.0234375 2.6015625q0 1.671875 -1.2421875 2.75q-1.2421875 1.078125 -3.1015625 1.078125q-0.921875 0 -1.6875 -0.171875l0.4375 -2.03125q0.671875 0.234375 1.328125 0.234375q0.859375 0 1.3671875 -0.4296875q0.5078125 -0.4296875 0.5078125 -1.2265625q0 -0.8125 -0.515625 -1.328125q-0.515625 -0.515625 -2.328125 -0.765625q-2.90625 -0.375 -4.5078125 -2.140625q-1.6015625 -1.765625 -1.6015625 -4.578125q0 -3.453125 1.953125 -5.46875q1.953125 -2.015625 5.171875 -2.015625q2.25 0 3.890625 1.1875l-1.109375 1.8125zm11.812408 11.390625l0 -19.296875l2.65625 0l0 19.296875l-2.65625 0zm20.51535 -14.5q3.9375 3.265625 3.9375 8.109375q0 3.109375 -1.3984375 4.8828125q-1.3984375 1.7734375 -3.9765625 1.7734375q-2.609375 0 -3.84375 -2.59375q-1.328125 2.59375 -3.859375 2.59375q-2.546875 0 -3.9375 -1.734375q-1.390625 -1.734375 -1.390625 -4.765625q0 -4.984375 3.984375 -8.265625l1.671875 1.546875q-1.5 1.25 -2.3046875 3.0q-0.8046875 1.75 -0.8046875 3.609375q0 2.203125 0.78125 3.3828125q0.78125 1.1796875 2.171875 1.1796875q0.578125 0 1.046875 -0.265625q0.46875 -0.265625 0.953125 -1.0234375q0.484375 -0.7578125 0.484375 -0.9765625l0 -2.625q0 -2.109375 -0.109375 -3.53125l2.578125 0q-0.09375 1.28125 -0.09375 3.453125l0 2.40625q0.515625 1.4375 1.1640625 2.0q0.6484375 0.5625 1.6953125 0.5625q2.625 0 2.625 -4.5q0 -3.953125 -3.140625 -6.65625l1.765625 -1.5625zm19.518127 2.46875l-4.203125 0q1.53125 1.15625 2.3828125 2.6484375q0.8515625 1.4921875 0.8515625 3.0078125q0 2.859375 -1.7265625 4.75q-1.7265625 1.890625 -4.6796875 1.890625q-2.984375 0 -4.71875 -1.921875q-1.734375 -1.921875 -1.734375 -5.0625q0 -3.34375 1.9296875 -5.375q1.9296875 -2.03125 5.0859375 -2.03125l6.8125 0l0 2.09375zm-3.609375 5.6875q0 -1.59375 -0.8828125 -3.140625q-0.8828125 -1.546875 -2.2578125 -2.546875q-2.140625 0 -3.296875 1.359375q-1.15625 1.359375 -1.15625 3.796875q0 2.3125 1.03125 3.703125q1.03125 1.390625 2.90625 1.390625q1.765625 0 2.7109375 -1.28125q0.9453125 -1.28125 0.9453125 -3.28125zm16.954956 10.015625l-2.46875 0.625l0 -12.515625q0 -2.328125 -0.7421875 -3.1953125q-0.7421875 -0.8671875 -2.1640625 -0.8671875q-0.90625 0 -1.7890625 0.5625q-0.8828125 0.5625 -1.3828125 1.328125l0 10.390625l-2.515625 0l0 -14.125l1.703125 0l0.78125 1.765625q1.5 -2.03125 4.046875 -2.03125q2.21875 0 3.375 1.4765625q1.15625 1.4765625 1.15625 4.3359375l0 12.25zm9.999512 -5.40625l0 -7.4375q0 -2.6875 1.1015625 -3.96875q1.1015625 -1.28125 3.0234375 -1.28125q2.515625 0 4.0546875 2.046875q1.5390625 2.046875 1.5390625 5.140625q0 3.140625 -1.8984375 5.171875q-1.8984375 2.03125 -5.3515625 2.296875l0 5.296875l-2.5 0l0 -5.296875q-3.515625 -0.1875 -5.390625 -2.1015625q-1.875 -1.9140625 -1.875 -5.0390625q0 -2.359375 1.0703125 -4.34375q1.0703125 -1.984375 3.0546875 -3.171875l1.359375 1.71875q-2.953125 2.09375 -2.953125 5.90625q0 2.109375 1.296875 3.5q1.296875 1.390625 3.46875 1.5625zm2.453125 0.03125q2.21875 -0.203125 3.484375 -1.6015625q1.265625 -1.3984375 1.265625 -3.6328125q0 -2.3125 -0.8671875 -3.8984375q-0.8671875 -1.5859375 -2.2109375 -1.5859375q-1.671875 0 -1.671875 2.8125l0 7.90625zm14.445801 1.9375q-4.375 0 -4.375 -4.078125l0 -10.28125l2.53125 0l0 9.96875q0 2.15625 1.84375 2.296875l0 2.09375zm0.078125 -21.5625l-2.359375 4.40625l-2.0625 0l1.453125 -4.40625l2.96875 0zm8.70282 3.453125q0.59375 0.453125 2.734375 3.0703125q2.140625 2.6171875 2.6953125 4.25q0.5546875 1.6328125 0.5546875 3.5078125q0 3.265625 -1.6953125 5.2890625q-1.6953125 2.0234375 -4.6953125 2.0234375q-3.015625 0 -4.6953125 -1.9921875q-1.6796875 -1.9921875 -1.6796875 -5.3828125q0 -1.96875 0.7421875 -3.6328125q0.7421875 -1.6640625 2.0703125 -2.5859375q1.328125 -0.921875 2.921875 -0.921875q0.6875 0 1.28125 0.125l-4.046875 -5.078125l0 -0.6875l9.078125 0l0 2.015625l-5.265625 0zm3.34375 10.765625q0 -3.140625 -1.765625 -5.125q-0.765625 -0.234375 -1.6875 -0.234375q-1.9375 0 -2.9921875 1.4765625q-1.0546875 1.4765625 -1.0546875 3.8828125q0 5.328125 3.75 5.328125q1.8125 0 2.78125 -1.4609375q0.96875 -1.4609375 0.96875 -3.8671875zm16.606201 10.78125l-2.46875 0.625l0 -12.515625q0 -2.328125 -0.7421875 -3.1953125q-0.7421875 -0.8671875 -2.1640625 -0.8671875q-0.90625 0 -1.7890625 0.5625q-0.8828125 0.5625 -1.3828125 1.328125l0 10.390625l-2.515625 0l0 -14.125l1.703125 0l0.78125 1.765625q1.5 -2.03125 4.046875 -2.03125q2.21875 0 3.375 1.4765625q1.15625 1.4765625 1.15625 4.3359375l0 12.25zm12.577576 -15.0625q-1.328125 -0.890625 -2.90625 -0.890625q-2.015625 0 -3.1953125 1.4375q-1.1796875 1.4375 -1.1796875 3.9375q0 3.734375 4.5 4.640625q2.171875 0.4375 3.1953125 1.3671875q1.0234375 0.9296875 1.0234375 2.6015625q0 1.671875 -1.2421875 2.75q-1.2421875 1.078125 -3.1015625 1.078125q-0.921875 0 -1.6875 -0.171875l0.4375 -2.03125q0.671875 0.234375 1.328125 0.234375q0.859375 0 1.3671875 -0.4296875q0.5078125 -0.4296875 0.5078125 -1.2265625q0 -0.8125 -0.515625 -1.328125q-0.515625 -0.515625 -2.328125 -0.765625q-2.90625 -0.375 -4.5078125 -2.140625q-1.6015625 -1.765625 -1.6015625 -4.578125q0 -3.453125 1.953125 -5.46875q1.953125 -2.015625 5.171875 -2.015625q2.25 0 3.890625 1.1875l-1.109375 1.8125z" fill-rule="nonzero"></path><path fill="#ffffff" d="m419.94714 503.6988l0 5.359375l6.796875 0l0 2.25l-6.796875 0l0 9.328125l-2.625 0l0 -19.3125l11.921875 0l0 2.375l-9.296875 0zm10.445068 7.109375q0 -4.1875 2.1015625 -7.0078125q2.1015625 -2.8203125 5.6640625 -2.8203125q4.03125 0 6.171875 2.59375q2.140625 2.59375 2.140625 7.234375q0 4.765625 -2.1484375 7.4609375q-2.1484375 2.6953125 -6.1640625 2.6953125q-3.640625 0 -5.703125 -2.84375q-2.0625 -2.84375 -2.0625 -7.3125zm2.765625 0q0 3.328125 1.3125 5.5546875q1.3125 2.2265625 3.6875 2.2265625q2.703125 0 4.125 -2.0390625q1.421875 -2.0390625 1.421875 -5.7421875q0 -7.453125 -5.546875 -7.453125q-2.453125 0 -3.7265625 2.0q-1.2734375 2.0 -1.2734375 5.453125zm15.242981 8.9375l0.953125 -2.421875q0.75 0.546875 1.8515625 0.90625q1.1015625 0.359375 1.9609375 0.359375q1.546875 0 2.484375 -0.84375q0.9375 -0.84375 0.9375 -2.140625q0 -0.984375 -0.5234375 -1.8203125q-0.5234375 -0.8359375 -2.6171875 -1.8203125l-1.5625 -0.734375q-1.96875 -0.921875 -2.75 -2.1875q-0.78125 -1.265625 -0.78125 -3.046875q0 -2.15625 1.5234375 -3.578125q1.5234375 -1.421875 3.9296875 -1.421875q3.203125 0 4.453125 1.03125l-0.78125 2.296875q-0.53125 -0.375 -1.609375 -0.734375q-1.078125 -0.359375 -2.0 -0.359375q-1.34375 0 -2.1171875 0.765625q-0.7734375 0.765625 -0.7734375 1.96875q0 0.734375 0.28125 1.34375q0.28125 0.609375 0.7734375 1.015625q0.4921875 0.40625 2.0234375 1.140625l1.578125 0.75q1.984375 0.9375 2.78125 2.2421875q0.796875 1.3046875 0.796875 3.3046875q0 2.171875 -1.75 3.6875q-1.75 1.515625 -4.671875 1.515625q-2.578125 0 -4.390625 -1.21875zm12.820496 0l0.953125 -2.421875q0.75 0.546875 1.8515625 0.90625q1.1015625 0.359375 1.9609375 0.359375q1.546875 0 2.484375 -0.84375q0.9375 -0.84375 0.9375 -2.140625q0 -0.984375 -0.5234375 -1.8203125q-0.5234375 -0.8359375 -2.6171875 -1.8203125l-1.5625 -0.734375q-1.96875 -0.921875 -2.75 -2.1875q-0.78125 -1.265625 -0.78125 -3.046875q0 -2.15625 1.5234375 -3.578125q1.5234375 -1.421875 3.9296875 -1.421875q3.203125 0 4.453125 1.03125l-0.78125 2.296875q-0.53125 -0.375 -1.609375 -0.734375q-1.078125 -0.359375 -2.0 -0.359375q-1.34375 0 -2.1171875 0.765625q-0.7734375 0.765625 -0.7734375 1.96875q0 0.734375 0.28125 1.34375q0.28125 0.609375 0.7734375 1.015625q0.4921875 0.40625 2.0234375 1.140625l1.578125 0.75q1.984375 0.9375 2.78125 2.2421875q0.796875 1.3046875 0.796875 3.3046875q0 2.171875 -1.75 3.6875q-1.75 1.515625 -4.671875 1.515625q-2.578125 0 -4.390625 -1.21875zm26.007996 -17.71875l-0.875 2.265625q-1.265625 -0.921875 -3.984375 -0.921875q-2.546875 0 -4.078125 2.1875q-1.53125 2.1875 -1.53125 5.640625q0 3.296875 1.5703125 5.34375q1.5703125 2.046875 4.0703125 2.046875q2.71875 0 4.171875 -1.921875l1.453125 2.015625q-2.296875 2.28125 -5.90625 2.28125q-3.78125 0 -5.953125 -2.7265625q-2.171875 -2.7265625 -2.171875 -7.1953125q0 -4.328125 2.3203125 -7.1875q2.3203125 -2.859375 5.9921875 -2.859375q3.15625 0 4.921875 1.03125zm2.7099304 8.78125q0 -4.1875 2.1015625 -7.0078125q2.1015625 -2.8203125 5.6640625 -2.8203125q4.03125 0 6.171875 2.59375q2.140625 2.59375 2.140625 7.234375q0 4.765625 -2.1484375 7.4609375q-2.1484375 2.6953125 -6.1640625 2.6953125q-3.640625 0 -5.703125 -2.84375q-2.0625 -2.84375 -2.0625 -7.3125zm2.765625 0q0 3.328125 1.3125 5.5546875q1.3125 2.2265625 3.6875 2.2265625q2.703125 0 4.125 -2.0390625q1.421875 -2.0390625 1.421875 -5.7421875q0 -7.453125 -5.546875 -7.453125q-2.453125 0 -3.7265625 2.0q-1.2734375 2.0 -1.2734375 5.453125zm30.649261 9.828125l-2.296875 -12.40625l-4.21875 12.671875l-0.65625 0l-4.3281555 -12.671875l-2.25 12.40625l-2.5 0l3.609375 -19.3125l1.203125 0l4.5937805 14.09375l4.25 -14.09375l1.1875 0l3.921875 19.3125l-2.515625 0zm18.911865 0l-2.296875 -12.40625l-4.21875 12.671875l-0.65625 0l-4.328125 -12.671875l-2.25 12.40625l-2.5 0l3.609375 -19.3125l1.203125 0l4.59375 14.09375l4.25 -14.09375l1.1875 0l3.921875 19.3125l-2.515625 0z" fill-rule="nonzero"></path><path fill="#ffffff" d="m415.85205 534.66754l-8.125 0l4.90625 6.359375l-5.8125 8.1875l8.921875 0l0 2.375l-13.0625 0l0 -0.640625l6.875 -9.640625l-6.359375 -8.40625l0 -0.609375l12.65625 0l0 2.375zm12.556854 15.546875q-2.46875 1.640625 -5.28125 1.640625q-2.609375 0 -4.0234375 -1.109375q-1.4140625 -1.109375 -1.4140625 -2.9375q0 -2.390625 3.046875 -3.515625q-1.25 -0.3125 -1.96875 -1.125q-0.71875 -0.8125 -0.71875 -1.8125q0 -1.828125 1.3515625 -2.9921875q1.3515625 -1.1640625 3.8046875 -1.1640625q2.125 0 4.578125 1.09375l-0.921875 2.03125q-2.125 -1.078125 -3.828125 -1.078125q-1.09375 0 -1.734375 0.53125q-0.640625 0.53125 -0.640625 1.453125q0 0.953125 0.7421875 1.484375q0.7421875 0.53125 2.1484375 0.53125q1.03125 0 1.8125 -0.046875l0 2.015625q-0.71875 -0.078125 -2.03125 -0.078125q-1.40625 0 -2.1875 0.671875q-0.78125 0.671875 -0.78125 1.8125q0 1.03125 0.78125 1.609375q0.78125 0.578125 2.21875 0.578125q2.046875 0 3.859375 -1.484375l1.1875 1.890625zm-2.03125 -19.953125l-2.34375 4.40625l-2.078125 0l1.453125 -4.40625l2.96875 0zm4.349304 26.859375l0 -11.5625q0 -4.3125 1.6875 -6.3359375q1.6875 -2.0234375 4.515625 -2.0234375q3.015625 0 4.71875 2.0q1.703125 2.0 1.703125 5.3125q0 3.265625 -1.7109375 5.3046875q-1.7109375 2.0390625 -4.6484375 2.0390625q-2.375 0 -3.765625 -1.09375l0 6.359375l-2.5 0zm2.5625 -8.390625q1.265625 1.03125 3.125 1.03125q2.09375 0 3.1953125 -1.3203125q1.1015625 -1.3203125 1.1015625 -3.8203125q0 -2.53125 -1.0234375 -3.953125q-1.0234375 -1.421875 -2.7578125 -1.421875q-1.703125 0 -2.671875 1.5390625q-0.96875 1.5390625 -0.96875 4.0234375l0 3.921875zm12.652924 8.390625l0 -11.5625q0 -4.3125 1.6875 -6.3359375q1.6875 -2.0234375 4.515625 -2.0234375q3.015625 0 4.71875 2.0q1.703125 2.0 1.703125 5.3125q0 3.265625 -1.7109375 5.3046875q-1.7109375 2.0390625 -4.6484375 2.0390625q-2.375 0 -3.765625 -1.09375l0 6.359375l-2.5 0zm2.5625 -8.390625q1.265625 1.03125 3.125 1.03125q2.09375 0 3.1953125 -1.3203125q1.1015625 -1.3203125 1.1015625 -3.8203125q0 -2.53125 -1.0234375 -3.953125q-1.0234375 -1.421875 -2.7578125 -1.421875q-1.703125 0 -2.671875 1.5390625q-0.96875 1.5390625 -0.96875 4.0234375l0 3.921875zm22.777893 1.484375q-2.46875 1.640625 -5.28125 1.640625q-2.609375 0 -4.0234375 -1.109375q-1.4140625 -1.109375 -1.4140625 -2.9375q0 -2.390625 3.046875 -3.515625q-1.25 -0.3125 -1.96875 -1.125q-0.71875 -0.8125 -0.71875 -1.8125q0 -1.828125 1.3515625 -2.9921875q1.3515625 -1.1640625 3.8046875 -1.1640625q2.125 0 4.578125 1.09375l-0.921875 2.03125q-2.125 -1.078125 -3.828125 -1.078125q-1.09375 0 -1.734375 0.53125q-0.640625 0.53125 -0.640625 1.453125q0 0.953125 0.7421875 1.484375q0.7421875 0.53125 2.1484375 0.53125q1.0 0 1.8125 -0.046875l0 2.015625q-0.71875 -0.078125 -2.03125 -0.078125q-1.40625 0 -2.1875 0.671875q-0.78125 0.671875 -0.78125 1.8125q0 1.03125 0.78125 1.609375q0.78125 0.578125 2.21875 0.578125q2.046875 0 3.859375 -1.484375l1.1875 1.890625zm11.489929 -10.015625q-1.328125 -0.890625 -2.90625 -0.890625q-2.015625 0 -3.1953125 1.4375q-1.1796875 1.4375 -1.1796875 3.9375q0 3.734375 4.5 4.640625q2.171875 0.4375 3.1953125 1.3671875q1.0234375 0.9296875 1.0234375 2.6015625q0 1.671875 -1.2421875 2.75q-1.2421875 1.078125 -3.1015625 1.078125q-0.921875 0 -1.6875 -0.171875l0.4375 -2.03125q0.671875 0.234375 1.328125 0.234375q0.859375 0 1.3671875 -0.4296875q0.5078125 -0.4296875 0.5078125 -1.2265625q0 -0.8125 -0.515625 -1.328125q-0.515625 -0.515625 -2.328125 -0.765625q-2.90625 -0.375 -4.5078125 -2.140625q-1.6015625 -1.765625 -1.6015625 -4.578125q0 -3.453125 1.953125 -5.46875q1.953125 -2.015625 5.171875 -2.015625q2.25 0 3.890625 1.1875l-1.109375 1.8125zm4.3129272 16.171875l-0.671875 -0.9375q2.265625 -1.859375 2.265625 -3.171875q0 -0.578125 -0.390625 -1.15625q-1.140625 -0.546875 -1.140625 -1.5625q0 -0.703125 0.5390625 -1.15625q0.5390625 -0.453125 1.3671875 -0.453125q0.71875 0 1.296875 0.6328125q0.578125 0.6328125 0.578125 1.4765625q0 1.765625 -0.734375 3.1640625q-0.734375 1.3984375 -3.109375 3.1640625zm15.7716675 -4.78125l0 -0.53125l6.0625 -9.265625q1.890625 -2.90625 1.890625 -4.9375q0 -2.6875 -3.015625 -2.6875q-1.078125 0 -2.0078125 0.5625q-0.9296875 0.5625 -1.3515625 1.421875l-1.703125 -1.390625q0.4375 -1.296875 1.75 -2.0625q1.3125 -0.765625 3.171875 -0.765625q2.78125 0 4.3515625 1.28125q1.5703125 1.28125 1.5703125 3.640625q0 2.171875 -2.078125 5.484375l-4.34375 6.875l7.578125 0l0 2.375l-11.875 0zm13.916443 -10.25q0 -4.15625 1.6875 -6.78125q1.6875 -2.625 4.75 -2.625q3.03125 0 4.5546875 2.1875q1.5234375 2.1875 1.5234375 7.640625q0 4.703125 -1.59375 7.3984375q-1.59375 2.6953125 -4.671875 2.6953125q-3.078125 0 -4.6640625 -2.1796875q-1.5859375 -2.1796875 -1.5859375 -8.3359375zm2.640625 0.25q0 8.015625 3.421875 8.015625q1.96875 0 2.890625 -1.7734375q0.921875 -1.7734375 0.921875 -6.2421875q0 -3.0625 -0.359375 -4.5q-0.359375 -1.4375 -1.1484375 -2.1796875q-0.7890625 -0.7421875 -1.9921875 -0.7421875q-3.734375 0 -3.734375 7.421875zm17.057007 10.0l0 -14.8125l-3.921875 2.453125l0 -2.453125q1.484375 -0.75 3.1640625 -2.0703125q1.6796875 -1.3203125 2.6015625 -2.5078125l0.796875 0l0 19.390625l-2.640625 0zm8.322693 0l0 -0.53125l6.0625 -9.265625q1.890625 -2.90625 1.890625 -4.9375q0 -2.6875 -3.015625 -2.6875q-1.078125 0 -2.0078125 0.5625q-0.9296875 0.5625 -1.3515625 1.421875l-1.703125 -1.390625q0.4375 -1.296875 1.75 -2.0625q1.3125 -0.765625 3.171875 -0.765625q2.78125 0 4.3515625 1.28125q1.5703125 1.28125 1.5703125 3.640625q0 2.171875 -2.078125 5.484375l-4.34375 6.875l7.578125 0l0 2.375l-11.875 0z" fill-rule="nonzero"></path></svg>

